<?xml version="1.0" encoding="UTF-8" standalone="no"?>
<!DOCTYPE svg PUBLIC "-//W3C//DTD SVG 1.1//EN" "http://www.w3.org/Graphics/SVG/1.1/DTD/svg11.dtd">
<svg width="100%" height="100%" viewBox="0 0 1146 1146" version="1.1" xmlns="http://www.w3.org/2000/svg" xmlns:xlink="http://www.w3.org/1999/xlink" xml:space="preserve" style="fill-rule:evenodd;clip-rule:evenodd;stroke-linejoin:round;stroke-miterlimit:1.41421;">
    <g transform="matrix(1,0,0,1,-468.744,-468.743)">
        <g id="Layer-1" transform="matrix(4.16667,0,0,4.16667,0,0)">
            <path d="M249.913,112.498C176.193,112.499 115.177,170.943 112.584,245.201C109.933,321.094 169.308,384.766 245.201,387.416C246.836,387.473 248.463,387.501 250.087,387.501C323.807,387.501 384.823,329.056 387.416,254.798C390.066,178.905 330.691,115.234 254.798,112.583C253.163,112.526 251.536,112.498 249.913,112.498M249.919,126.498C251.372,126.498 252.849,126.524 254.31,126.575C287.278,127.726 317.824,141.647 340.322,165.773C362.82,189.899 374.576,221.342 373.425,254.31C372.3,286.514 358.906,316.561 335.709,338.916C312.567,361.219 282.158,373.501 250.087,373.501C248.63,373.501 247.15,373.475 245.69,373.424C212.722,372.273 182.175,358.352 159.678,334.226C137.18,310.1 125.424,278.657 126.575,245.689C127.7,213.486 141.094,183.439 164.291,161.084C187.433,138.781 217.841,126.499 249.917,126.498L249.919,126.498" style="fill:white;fill-rule:nonzero;"/>
            <path d="M247.966,256.262L247.966,298.198L287.849,311.157L247.966,324.116L247.966,366.052L223.317,332.125L183.433,345.084L208.082,311.157L183.433,277.23L223.317,290.189L247.966,256.262Z" style="fill:white;fill-rule:nonzero;"/>
            <path d="M245.595,245.107L209.277,224.139L178.113,252.2L186.832,211.18L150.514,190.212L192.221,185.829L200.94,144.809L217.996,183.119L259.703,178.736L228.538,206.797L245.595,245.107Z" style="fill:white;fill-rule:nonzero;"/>
            <path d="M256.44,248.631L292.758,227.663L284.039,186.643L315.203,214.704L351.521,193.736L334.464,232.047L365.628,260.107L323.922,255.724L306.865,294.034L298.146,253.014L256.44,248.631Z" style="fill:white;fill-rule:nonzero;"/>
            <path d="M247.966,256.262L247.966,298.198L287.849,311.157L247.966,324.116L247.966,366.052L223.317,332.125L183.433,345.084L208.082,311.157L183.433,277.23L223.317,290.189L247.966,256.262Z" style="fill:white;fill-rule:nonzero;"/>
        </g>
    </g>
</svg>
