<?xml version="1.0" encoding="UTF-8" standalone="no"?>
<!DOCTYPE svg PUBLIC "-//W3C//DTD SVG 1.1//EN" "http://www.w3.org/Graphics/SVG/1.1/DTD/svg11.dtd">
<svg width="100%" height="100%" viewBox="0 0 1400 605" version="1.1" xmlns="http://www.w3.org/2000/svg" xmlns:xlink="http://www.w3.org/1999/xlink" xml:space="preserve" style="fill-rule:evenodd;clip-rule:evenodd;stroke-linejoin:round;stroke-miterlimit:1.41421;">
    <g transform="matrix(1,0,0,1,-12854.2,-1437.47)">
        <g transform="matrix(4.16667,0,0,4.16667,11137.5,0)">
            <rect x="412" y="344.993" width="336" height="145" style="fill:rgb(240,83,59);fill-rule:nonzero;"/>
        </g>
        <g transform="matrix(4.16667,0,0,4.16667,11137.5,0)">
            <path d="M712.308,456.255C711.802,456.255 711.39,455.844 711.39,455.338C711.39,454.832 711.802,454.421 712.308,454.421C712.814,454.421 713.225,454.832 713.225,455.338C713.225,455.844 712.814,456.255 712.308,456.255M658.882,451.369C658.122,451.369 657.504,450.751 657.504,449.991C657.504,449.232 658.122,448.614 658.882,448.614C659.642,448.614 660.26,449.232 660.26,449.991C660.26,450.751 659.642,451.369 658.882,451.369M613.225,441.253C612.148,441.253 611.271,440.376 611.271,439.299C611.271,438.221 612.148,437.345 613.225,437.345C614.302,437.345 615.179,438.221 615.179,439.299C615.179,440.376 614.302,441.253 613.225,441.253M505.31,420.587C503.835,420.587 502.635,419.388 502.635,417.913C502.635,416.439 503.835,415.239 505.31,415.239C506.785,415.239 507.984,416.439 507.984,417.913C507.984,419.388 506.785,420.587 505.31,420.587M449.801,421.487C447.83,421.487 446.227,419.884 446.227,417.913C446.227,415.942 447.83,414.339 449.801,414.339C451.772,414.339 453.375,415.942 453.375,417.913C453.375,419.884 451.772,421.487 449.801,421.487M574.543,394.574C575.621,394.574 576.497,395.45 576.497,396.527C576.497,397.605 575.621,398.481 574.543,398.481C573.466,398.481 572.589,397.605 572.589,396.527C572.589,395.45 573.466,394.574 574.543,394.574M629.933,384.457C630.693,384.457 631.311,385.075 631.311,385.835C631.311,386.594 630.693,387.213 629.933,387.213C629.173,387.213 628.554,386.594 628.554,385.835C628.554,385.075 629.173,384.457 629.933,384.457M678.786,379.571C679.291,379.571 679.703,379.983 679.703,380.488C679.703,380.994 679.291,381.405 678.786,381.405C678.28,381.405 677.868,380.994 677.868,380.488C677.868,379.983 678.28,379.571 678.786,379.571M646.032,390.264C646.537,390.264 646.95,390.675 646.95,391.181C646.95,391.687 646.537,392.098 646.032,392.098C645.526,392.098 645.115,391.687 645.115,391.181C645.115,390.675 645.526,390.264 646.032,390.264M620.703,405.842C621.462,405.842 622.08,406.461 622.08,407.22C622.08,407.98 621.462,408.598 620.703,408.598C619.943,408.598 619.325,407.98 619.325,407.22C619.325,406.461 619.943,405.842 620.703,405.842M636.788,400.957C637.294,400.957 637.705,401.368 637.705,401.874C637.705,402.38 637.294,402.791 636.788,402.791C636.283,402.791 635.87,402.38 635.87,401.874C635.87,401.368 636.283,400.957 636.788,400.957M664.603,411.65C665.109,411.65 665.521,412.061 665.521,412.567C665.521,413.072 665.109,413.484 664.603,413.484C664.097,413.484 663.686,413.072 663.686,412.567C663.686,412.061 664.097,411.65 664.603,411.65M662.851,427.228C663.611,427.228 664.229,427.846 664.229,428.606C664.229,429.366 663.611,429.984 662.851,429.984C662.091,429.984 661.473,429.366 661.473,428.606C661.473,427.846 662.091,427.228 662.851,427.228M678.786,422.342C679.291,422.342 679.703,422.754 679.703,423.259C679.703,423.765 679.291,424.176 678.786,424.176C678.28,424.176 677.868,423.765 677.868,423.259C677.868,422.754 678.28,422.342 678.786,422.342M678.786,433.035C679.291,433.035 679.703,433.446 679.703,433.952C679.703,434.458 679.291,434.869 678.786,434.869C678.28,434.869 677.868,434.458 677.868,433.952C677.868,433.446 678.28,433.035 678.786,433.035M674.732,443.728C675.238,443.728 675.65,444.139 675.65,444.645C675.65,445.151 675.238,445.562 674.732,445.562C674.226,445.562 673.815,445.151 673.815,444.645C673.815,444.139 674.226,443.728 674.732,443.728M712.308,452.568C711.107,452.568 710.093,453.341 709.71,454.412L674.732,454.412C670.138,454.412 667.408,452.979 664.767,451.593C663.905,451.141 663.013,450.702 662.08,450.304C662.09,450.2 662.112,450.099 662.112,449.991C662.112,449.884 662.09,449.783 662.08,449.679C663.013,449.28 663.905,448.842 664.767,448.389C666.878,447.282 669.06,446.155 672.193,445.743C672.619,446.725 673.596,447.415 674.732,447.415C676.259,447.415 677.501,446.172 677.501,444.645C677.501,443.118 676.259,441.876 674.732,441.876C673.466,441.876 672.408,442.735 672.079,443.897C668.549,444.339 666.1,445.599 663.907,446.75C663.046,447.201 662.22,447.607 661.38,447.969C660.788,447.239 659.894,446.761 658.882,446.761C657.425,446.761 656.205,447.737 655.804,449.065L646.2,449.065C636.783,449.065 631.219,446.146 625.838,443.323C622.982,441.823 620.203,440.392 617.015,439.453C617.017,439.401 617.031,439.352 617.031,439.299C617.031,439.246 617.017,439.197 617.015,439.145C620.203,438.206 622.982,436.774 625.838,435.275C631.219,432.452 636.783,429.532 646.2,429.532L659.773,429.532C660.174,430.86 661.394,431.836 662.851,431.836C663.885,431.836 664.796,431.339 665.387,430.582C666.246,430.95 667.081,431.387 667.959,431.848C670.152,432.998 672.602,434.258 676.132,434.7C676.461,435.863 677.519,436.722 678.786,436.722C680.312,436.722 681.554,435.479 681.554,433.952C681.554,432.425 680.312,431.183 678.786,431.183C677.649,431.183 676.672,431.872 676.246,432.854C673.113,432.443 670.931,431.315 668.82,430.208C667.933,429.742 667.016,429.29 666.052,428.884C666.061,428.791 666.08,428.701 666.08,428.606C666.08,428.511 666.061,428.421 666.052,428.328C667.016,427.922 667.933,427.469 668.82,427.004C670.931,425.896 673.113,424.769 676.246,424.358C676.672,425.339 677.649,426.029 678.786,426.029C680.312,426.029 681.554,424.786 681.554,423.259C681.554,421.733 680.312,420.49 678.786,420.49C677.519,420.49 676.461,421.349 676.132,422.511C672.602,422.953 670.152,424.213 667.959,425.364C667.081,425.825 666.246,426.262 665.387,426.63C664.796,425.872 663.885,425.376 662.851,425.376C661.394,425.376 660.174,426.352 659.773,427.68L646.2,427.68C636.327,427.68 630.297,430.844 624.978,433.635C622.218,435.083 619.537,436.467 616.483,437.362C615.819,436.248 614.614,435.492 613.225,435.492C611.448,435.492 609.963,436.723 609.547,438.373L572.586,438.373C553.525,438.373 542.294,432.48 531.434,426.781C524.565,423.176 517.95,419.736 509.821,418.06C509.822,418.01 509.835,417.963 509.835,417.913C509.835,417.863 509.822,417.816 509.821,417.767C517.95,416.09 524.565,412.65 531.434,409.046C541.959,403.522 552.865,397.841 570.878,397.495C571.309,399.123 572.781,400.334 574.543,400.334C576.093,400.334 577.425,399.399 578.017,398.067C581.714,398.908 584.802,400.512 588.003,402.192C593.323,404.983 599.352,408.147 609.225,408.147L617.625,408.147C618.026,409.475 619.245,410.451 620.703,410.451C621.757,410.451 622.687,409.935 623.276,409.151C624.176,409.527 625.046,409.981 625.962,410.462C628.669,411.882 631.738,413.493 636.788,413.493L662.005,413.493C662.389,414.563 663.403,415.336 664.603,415.336C666.13,415.336 667.372,414.093 667.372,412.567C667.372,411.04 666.13,409.797 664.603,409.797C663.403,409.797 662.389,410.57 662.005,411.64L636.788,411.64C632.194,411.64 629.463,410.208 626.823,408.822C625.891,408.333 624.929,407.855 623.91,407.435C623.915,407.363 623.932,407.294 623.932,407.22C623.932,407.147 623.915,407.078 623.91,407.005C624.929,406.585 625.891,406.107 626.823,405.618C628.934,404.511 631.116,403.383 634.248,402.972C634.675,403.954 635.652,404.643 636.788,404.643C638.315,404.643 639.557,403.401 639.557,401.874C639.557,400.347 638.315,399.105 636.788,399.105C635.522,399.105 634.463,399.963 634.135,401.126C630.605,401.568 628.155,402.828 625.962,403.978C625.045,404.459 624.176,404.913 623.276,405.29C622.687,404.505 621.757,403.99 620.703,403.99C619.245,403.99 618.026,404.966 617.625,406.294L609.225,406.294C599.808,406.294 594.245,403.375 588.864,400.551C585.862,398.976 582.961,397.458 579.566,396.528C582.961,395.597 585.862,394.079 588.864,392.504C594.245,389.68 599.808,386.761 609.225,386.761L626.854,386.761C627.255,388.089 628.476,389.065 629.933,389.065C630.99,389.065 631.92,388.548 632.51,387.761C633.413,388.139 634.285,388.594 635.205,389.077C637.399,390.227 639.848,391.487 643.379,391.929C643.708,393.091 644.766,393.95 646.032,393.95C647.559,393.95 648.801,392.708 648.801,391.181C648.801,389.654 647.559,388.412 646.032,388.412C644.896,388.412 643.919,389.101 643.493,390.083C640.36,389.672 638.177,388.544 636.066,387.437C635.131,386.946 634.165,386.466 633.141,386.045C633.146,385.974 633.162,385.907 633.162,385.835C633.162,385.763 633.146,385.695 633.141,385.625C634.165,385.204 635.131,384.724 636.066,384.233C638.706,382.847 641.438,381.415 646.032,381.415L676.187,381.415C676.57,382.485 677.585,383.258 678.786,383.258C680.312,383.258 681.554,382.015 681.554,380.488C681.554,378.962 680.312,377.719 678.786,377.719C677.585,377.719 676.57,378.492 676.187,379.562L646.032,379.562C640.981,379.562 637.912,381.172 635.205,382.593C634.285,383.076 633.413,383.531 632.51,383.908C631.92,383.122 630.99,382.605 629.933,382.605C628.476,382.605 627.255,383.581 626.854,384.908L609.225,384.908C599.352,384.908 593.323,388.072 588.003,390.863C584.802,392.543 581.714,394.147 578.017,394.988C577.425,393.656 576.093,392.721 574.543,392.721C572.751,392.721 571.253,393.971 570.852,395.643C552.403,395.992 541.295,401.78 530.574,407.405C523.821,410.949 517.321,414.331 509.375,415.962C508.644,414.445 507.104,413.387 505.31,413.387C503.146,413.387 501.337,414.915 500.893,416.947C500.368,416.964 499.849,416.987 499.31,416.987L455.142,416.987C454.701,414.436 452.477,412.487 449.801,412.487C446.809,412.487 444.375,414.922 444.375,417.913C444.375,420.905 446.809,423.339 449.801,423.339C452.477,423.339 454.701,421.391 455.142,418.839L499.31,418.839C499.849,418.839 500.368,418.863 500.893,418.88C501.337,420.911 503.146,422.44 505.31,422.44C507.104,422.44 508.644,421.382 509.375,419.864C517.321,421.496 523.821,424.878 530.574,428.421C541.633,434.224 553.069,440.225 572.586,440.225L609.547,440.225C609.963,441.875 611.448,443.105 613.225,443.105C614.614,443.105 615.818,442.349 616.483,441.236C619.537,442.131 622.218,443.515 624.978,444.963C630.297,447.754 636.327,450.918 646.2,450.918L655.804,450.918C656.205,452.246 657.425,453.222 658.882,453.222C659.894,453.222 660.788,452.744 661.38,452.014C662.22,452.376 663.046,452.782 663.907,453.234C666.614,454.654 669.681,456.264 674.732,456.264L709.71,456.264C710.093,457.335 711.107,458.108 712.308,458.108C713.834,458.108 715.077,456.865 715.077,455.338C715.077,453.811 713.834,452.568 712.308,452.568" style="fill:white;fill-rule:nonzero;"/>
        </g>
    </g>
</svg>
