<?xml version="1.0" encoding="UTF-8" standalone="no"?>
<!DOCTYPE svg PUBLIC "-//W3C//DTD SVG 1.1//EN" "http://www.w3.org/Graphics/SVG/1.1/DTD/svg11.dtd">
<svg width="100%" height="100%" viewBox="0 0 2672 481" version="1.1" xmlns="http://www.w3.org/2000/svg" xmlns:xlink="http://www.w3.org/1999/xlink" xml:space="preserve" style="fill-rule:evenodd;clip-rule:evenodd;stroke-linejoin:round;stroke-miterlimit:1.41421;">
    <g transform="matrix(1,0,0,1,-312.271,-1782.8)">
        <g transform="matrix(4.16667,0,0,4.16667,0,0)">
            <path d="M117.057,473.403C116.922,473.256 116.745,473.182 116.526,473.182L104.318,473.182C103.731,473.182 103.352,473.311 103.181,473.568C103.009,473.824 102.924,474.185 102.924,474.649L102.924,498.112C102.924,498.308 102.992,498.479 103.125,498.626C103.26,498.772 103.438,498.845 103.658,498.845L104.024,498.845C104.244,498.845 104.421,498.772 104.556,498.626C104.69,498.479 104.757,498.308 104.757,498.112L104.757,486.418L114.472,486.418C114.667,486.418 114.839,486.35 114.986,486.215C115.132,486.082 115.205,485.904 115.205,485.684L115.205,485.354C115.205,485.159 115.132,484.988 114.986,484.84C114.839,484.694 114.667,484.621 114.472,484.621L104.757,484.621L104.757,474.979L116.526,474.979C117.014,474.979 117.259,474.735 117.259,474.246L117.259,473.916C117.259,473.72 117.191,473.549 117.057,473.403" style="fill:white;fill-rule:nonzero;"/>
        </g>
        <g transform="matrix(4.16667,0,0,4.16667,0,0)">
            <path d="M149.3,473.183L154.323,473.183C160.238,473.183 163.195,475.505 163.195,480.149C163.195,481.958 162.62,483.565 161.472,484.97C160.322,486.375 158.515,487.078 156.046,487.078L155.643,487.078L163.562,497.49C163.855,497.929 164.001,498.199 164.001,498.296C164.001,498.662 163.83,498.846 163.488,498.846L162.755,498.846C162.437,498.846 162.205,498.748 162.059,498.553L153.59,487.408C153.321,487.017 153.187,486.7 153.187,486.454C153.187,485.672 153.613,485.282 154.47,485.282L156.083,485.282C157.11,485.282 157.989,485.111 158.722,484.768C159.455,484.426 159.993,483.987 160.335,483.449C161.02,482.398 161.362,481.31 161.362,480.186C161.362,476.74 159.003,475.016 154.286,475.016L149.594,475.016L149.594,498.113C149.594,498.309 149.527,498.48 149.392,498.626C149.257,498.773 149.08,498.846 148.861,498.846L148.494,498.846C148.274,498.846 148.096,498.773 147.962,498.626C147.827,498.48 147.761,498.309 147.761,498.113L147.761,474.907C147.761,474.246 147.864,473.794 148.072,473.55C148.279,473.306 148.69,473.183 149.3,473.183" style="fill:white;fill-rule:nonzero;"/>
        </g>
        <g transform="matrix(4.16667,0,0,4.16667,0,0)">
            <path d="M197.254,487.554L201.469,475.603L205.664,487.554L197.254,487.554ZM211.294,497.856L202.861,474.173C202.617,473.49 202.134,473.147 201.413,473.147C200.693,473.147 200.222,473.477 200.002,474.136L191.607,497.856C191.582,497.929 191.57,498.015 191.57,498.113C191.57,498.602 191.815,498.846 192.303,498.846L192.743,498.846C193.061,498.846 193.293,498.688 193.44,498.369L196.62,489.351L206.295,489.351L209.461,498.369C209.608,498.688 209.839,498.846 210.157,498.846L210.597,498.846C211.086,498.846 211.33,498.602 211.33,498.113C211.33,498.015 211.318,497.929 211.294,497.856" style="fill:white;fill-rule:nonzero;"/>
        </g>
        <g transform="matrix(4.16667,0,0,4.16667,0,0)">
            <path d="M245.92,473.898C246.787,473.495 247.557,473.239 248.23,473.128C248.901,473.018 249.562,472.963 250.209,472.963C250.857,472.963 251.511,473.018 252.171,473.128C252.83,473.239 253.558,473.471 254.352,473.825C255.146,474.179 255.86,474.631 256.497,475.181C257.132,475.731 257.694,476.489 258.183,477.455C258.672,478.42 258.977,479.539 259.1,480.809C259.1,481.347 258.856,481.616 258.366,481.616L258.036,481.616C257.597,481.616 257.352,481.396 257.303,480.956C257.181,479.929 256.924,479.025 256.533,478.243C256.142,477.461 255.691,476.862 255.177,476.446C254.664,476.031 254.077,475.689 253.417,475.419C252.44,475.004 251.529,474.796 250.686,474.796C249.843,474.796 249.147,474.846 248.597,474.943C248.046,475.042 247.429,475.25 246.745,475.567C246.061,475.884 245.462,476.306 244.948,476.832C244.436,477.357 244.001,478.096 243.647,479.049C243.292,480.002 243.115,481.102 243.115,482.349L243.115,489.535C243.115,490.781 243.311,491.88 243.702,492.834C244.093,493.787 244.564,494.527 245.113,495.052C245.663,495.578 246.305,496 247.038,496.317C248.211,496.83 249.312,497.086 250.338,497.086C251.364,497.086 252.237,496.995 252.959,496.811C253.68,496.628 254.395,496.304 255.104,495.84C256.619,494.887 257.377,493.115 257.377,490.524C257.377,490.109 257.443,489.84 257.578,489.717C257.712,489.595 257.89,489.535 258.109,489.535L258.403,489.535C258.892,489.535 259.137,489.779 259.137,490.267C259.137,491.758 258.899,493.066 258.421,494.19C257.944,495.315 257.389,496.165 256.753,496.738C256.117,497.313 255.372,497.771 254.517,498.113C253.197,498.627 252.042,498.883 251.053,498.883C250.063,498.883 249.207,498.822 248.486,498.7C247.765,498.578 246.958,498.309 246.066,497.893C245.174,497.478 244.393,496.953 243.721,496.317C243.048,495.681 242.48,494.783 242.016,493.622C241.551,492.461 241.319,491.135 241.319,489.644L241.319,482.202C241.319,480.663 241.545,479.306 241.997,478.132C242.449,476.96 242.999,476.061 243.647,475.438C244.294,474.815 245.052,474.301 245.92,473.898" style="fill:white;fill-rule:nonzero;"/>
        </g>
        <g transform="matrix(4.16667,0,0,4.16667,0,0)">
            <path d="M305.568,473.403C305.433,473.256 305.256,473.182 305.037,473.182L288.758,473.182C288.563,473.182 288.392,473.256 288.246,473.403C288.099,473.549 288.026,473.72 288.026,473.916L288.026,474.319C288.026,474.759 288.27,474.979 288.758,474.979L295.945,474.979L295.945,498.112C295.945,498.308 296.011,498.479 296.145,498.626C296.28,498.772 296.458,498.845 296.677,498.845L297.045,498.845C297.264,498.845 297.441,498.772 297.576,498.626C297.71,498.479 297.778,498.308 297.778,498.112L297.778,474.979L305.037,474.979C305.525,474.979 305.77,474.759 305.77,474.319L305.77,473.916C305.77,473.72 305.702,473.549 305.568,473.403" style="fill:white;fill-rule:nonzero;"/>
        </g>
        <g transform="matrix(4.16667,0,0,4.16667,0,0)">
            <path d="M339.755,487.554L343.97,475.603L348.165,487.554L339.755,487.554ZM353.795,497.856L345.362,474.173C345.118,473.49 344.635,473.147 343.914,473.147C343.194,473.147 342.723,473.477 342.503,474.136L334.108,497.856C334.083,497.929 334.071,498.015 334.071,498.113C334.071,498.602 334.316,498.846 334.804,498.846L335.244,498.846C335.562,498.846 335.794,498.688 335.941,498.369L339.121,489.351L348.796,489.351L351.962,498.369C352.109,498.688 352.34,498.846 352.658,498.846L353.098,498.846C353.587,498.846 353.831,498.602 353.831,498.113C353.831,498.015 353.819,497.929 353.795,497.856" style="fill:white;fill-rule:nonzero;"/>
        </g>
        <g transform="matrix(4.16667,0,0,4.16667,0,0)">
            <path d="M384.956,473.183L385.323,473.183C385.518,473.183 385.689,473.256 385.836,473.404C385.983,473.55 386.057,473.721 386.057,473.916L386.057,497.049L398.301,497.049C398.765,497.049 398.998,497.294 398.998,497.783L398.998,498.113C398.998,498.309 398.93,498.48 398.796,498.626C398.661,498.773 398.496,498.846 398.301,498.846L385.727,498.846C384.724,498.846 384.224,498.321 384.224,497.27L384.224,473.916C384.224,473.721 384.297,473.55 384.443,473.404C384.59,473.256 384.761,473.183 384.956,473.183" style="fill:white;fill-rule:nonzero;"/>
        </g>
        <g transform="matrix(4.16667,0,0,4.16667,0,0)">
            <path d="M686.308,524.473C685.802,524.473 685.39,524.062 685.39,523.556C685.39,523.05 685.802,522.639 686.308,522.639C686.814,522.639 687.225,523.05 687.225,523.556C687.225,524.062 686.814,524.473 686.308,524.473M632.882,519.587C632.122,519.587 631.504,518.969 631.504,518.209C631.504,517.45 632.122,516.832 632.882,516.832C633.642,516.832 634.26,517.45 634.26,518.209C634.26,518.969 633.642,519.587 632.882,519.587M587.225,509.471C586.148,509.471 585.271,508.594 585.271,507.517C585.271,506.439 586.148,505.563 587.225,505.563C588.302,505.563 589.179,506.439 589.179,507.517C589.179,508.594 588.302,509.471 587.225,509.471M479.31,488.805C477.835,488.805 476.635,487.606 476.635,486.131C476.635,484.657 477.835,483.457 479.31,483.457C480.785,483.457 481.984,484.657 481.984,486.131C481.984,487.606 480.785,488.805 479.31,488.805M423.801,489.705C421.83,489.705 420.227,488.102 420.227,486.131C420.227,484.16 421.83,482.557 423.801,482.557C425.772,482.557 427.375,484.16 427.375,486.131C427.375,488.102 425.772,489.705 423.801,489.705M548.543,462.792C549.621,462.792 550.497,463.668 550.497,464.745C550.497,465.823 549.621,466.699 548.543,466.699C547.466,466.699 546.589,465.823 546.589,464.745C546.589,463.668 547.466,462.792 548.543,462.792M603.933,452.675C604.693,452.675 605.311,453.293 605.311,454.053C605.311,454.812 604.693,455.431 603.933,455.431C603.173,455.431 602.554,454.812 602.554,454.053C602.554,453.293 603.173,452.675 603.933,452.675M652.786,447.789C653.291,447.789 653.703,448.201 653.703,448.706C653.703,449.212 653.291,449.623 652.786,449.623C652.28,449.623 651.868,449.212 651.868,448.706C651.868,448.201 652.28,447.789 652.786,447.789M620.032,458.482C620.537,458.482 620.95,458.893 620.95,459.399C620.95,459.905 620.537,460.316 620.032,460.316C619.526,460.316 619.115,459.905 619.115,459.399C619.115,458.893 619.526,458.482 620.032,458.482M594.703,474.06C595.462,474.06 596.08,474.679 596.08,475.438C596.08,476.198 595.462,476.816 594.703,476.816C593.943,476.816 593.325,476.198 593.325,475.438C593.325,474.679 593.943,474.06 594.703,474.06M610.788,469.175C611.294,469.175 611.705,469.586 611.705,470.092C611.705,470.598 611.294,471.009 610.788,471.009C610.283,471.009 609.87,470.598 609.87,470.092C609.87,469.586 610.283,469.175 610.788,469.175M638.603,479.868C639.109,479.868 639.521,480.279 639.521,480.785C639.521,481.29 639.109,481.702 638.603,481.702C638.097,481.702 637.686,481.29 637.686,480.785C637.686,480.279 638.097,479.868 638.603,479.868M636.851,495.446C637.611,495.446 638.229,496.064 638.229,496.824C638.229,497.584 637.611,498.202 636.851,498.202C636.091,498.202 635.473,497.584 635.473,496.824C635.473,496.064 636.091,495.446 636.851,495.446M652.786,490.56C653.291,490.56 653.703,490.972 653.703,491.477C653.703,491.983 653.291,492.394 652.786,492.394C652.28,492.394 651.868,491.983 651.868,491.477C651.868,490.972 652.28,490.56 652.786,490.56M652.786,501.253C653.291,501.253 653.703,501.664 653.703,502.17C653.703,502.676 653.291,503.087 652.786,503.087C652.28,503.087 651.868,502.676 651.868,502.17C651.868,501.664 652.28,501.253 652.786,501.253M648.732,511.946C649.238,511.946 649.65,512.357 649.65,512.863C649.65,513.369 649.238,513.78 648.732,513.78C648.226,513.78 647.815,513.369 647.815,512.863C647.815,512.357 648.226,511.946 648.732,511.946M686.308,520.786C685.107,520.786 684.093,521.559 683.71,522.63L648.732,522.63C644.138,522.63 641.408,521.197 638.767,519.811C637.905,519.359 637.013,518.92 636.08,518.522C636.09,518.418 636.112,518.317 636.112,518.209C636.112,518.102 636.09,518.001 636.08,517.897C637.013,517.498 637.905,517.06 638.767,516.607C640.878,515.5 643.06,514.373 646.193,513.961C646.619,514.943 647.596,515.633 648.732,515.633C650.259,515.633 651.501,514.39 651.501,512.863C651.501,511.336 650.259,510.094 648.732,510.094C647.466,510.094 646.408,510.953 646.079,512.115C642.549,512.557 640.1,513.817 637.907,514.968C637.046,515.419 636.22,515.825 635.38,516.187C634.788,515.457 633.894,514.979 632.882,514.979C631.425,514.979 630.205,515.955 629.804,517.283L620.2,517.283C610.783,517.283 605.219,514.364 599.838,511.541C596.982,510.041 594.203,508.61 591.015,507.671C591.017,507.619 591.031,507.57 591.031,507.517C591.031,507.464 591.017,507.415 591.015,507.363C594.203,506.424 596.982,504.992 599.838,503.493C605.219,500.67 610.783,497.75 620.2,497.75L633.773,497.75C634.174,499.078 635.394,500.054 636.851,500.054C637.885,500.054 638.796,499.557 639.387,498.8C640.246,499.168 641.081,499.605 641.959,500.066C644.152,501.216 646.602,502.476 650.132,502.918C650.461,504.081 651.519,504.94 652.786,504.94C654.312,504.94 655.554,503.697 655.554,502.17C655.554,500.643 654.312,499.401 652.786,499.401C651.649,499.401 650.672,500.09 650.246,501.072C647.113,500.661 644.931,499.533 642.82,498.426C641.933,497.96 641.016,497.508 640.052,497.102C640.061,497.009 640.08,496.919 640.08,496.824C640.08,496.729 640.061,496.639 640.052,496.546C641.016,496.14 641.933,495.687 642.82,495.222C644.931,494.114 647.113,492.987 650.246,492.576C650.672,493.557 651.649,494.247 652.786,494.247C654.312,494.247 655.554,493.004 655.554,491.477C655.554,489.951 654.312,488.708 652.786,488.708C651.519,488.708 650.461,489.567 650.132,490.729C646.602,491.171 644.152,492.431 641.959,493.582C641.081,494.043 640.246,494.48 639.387,494.848C638.796,494.09 637.885,493.594 636.851,493.594C635.394,493.594 634.174,494.57 633.773,495.898L620.2,495.898C610.327,495.898 604.297,499.062 598.978,501.853C596.218,503.301 593.537,504.685 590.483,505.58C589.819,504.466 588.614,503.71 587.225,503.71C585.448,503.71 583.963,504.941 583.547,506.591L546.586,506.591C527.525,506.591 516.294,500.698 505.434,494.999C498.565,491.394 491.95,487.954 483.82,486.278C483.822,486.228 483.835,486.181 483.835,486.131C483.835,486.081 483.822,486.034 483.82,485.985C491.95,484.308 498.565,480.868 505.434,477.264C515.959,471.74 526.865,466.059 544.878,465.713C545.309,467.341 546.781,468.552 548.543,468.552C550.093,468.552 551.425,467.617 552.017,466.285C555.714,467.126 558.802,468.73 562.003,470.41C567.323,473.201 573.352,476.365 583.225,476.365L591.625,476.365C592.026,477.693 593.245,478.669 594.703,478.669C595.757,478.669 596.687,478.153 597.276,477.369C598.176,477.745 599.046,478.199 599.962,478.68C602.669,480.1 605.738,481.711 610.788,481.711L636.005,481.711C636.389,482.781 637.403,483.554 638.603,483.554C640.13,483.554 641.372,482.311 641.372,480.785C641.372,479.258 640.13,478.015 638.603,478.015C637.403,478.015 636.389,478.788 636.005,479.858L610.788,479.858C606.194,479.858 603.463,478.426 600.823,477.04C599.891,476.551 598.929,476.073 597.91,475.653C597.915,475.581 597.932,475.512 597.932,475.438C597.932,475.365 597.915,475.296 597.91,475.223C598.929,474.803 599.891,474.325 600.823,473.836C602.934,472.729 605.116,471.601 608.248,471.19C608.675,472.172 609.652,472.861 610.788,472.861C612.315,472.861 613.557,471.619 613.557,470.092C613.557,468.565 612.315,467.323 610.788,467.323C609.522,467.323 608.463,468.181 608.135,469.344C604.605,469.786 602.155,471.046 599.962,472.196C599.045,472.677 598.176,473.131 597.276,473.508C596.687,472.723 595.757,472.208 594.703,472.208C593.245,472.208 592.026,473.184 591.625,474.512L583.225,474.512C573.808,474.512 568.245,471.593 562.864,468.769C559.862,467.194 556.961,465.676 553.566,464.746C556.961,463.815 559.862,462.297 562.864,460.722C568.245,457.898 573.808,454.979 583.225,454.979L600.854,454.979C601.255,456.307 602.476,457.283 603.933,457.283C604.99,457.283 605.92,456.766 606.51,455.979C607.413,456.357 608.285,456.812 609.205,457.295C611.399,458.445 613.848,459.705 617.379,460.147C617.708,461.309 618.766,462.168 620.032,462.168C621.559,462.168 622.801,460.926 622.801,459.399C622.801,457.872 621.559,456.63 620.032,456.63C618.896,456.63 617.919,457.319 617.493,458.301C614.36,457.89 612.177,456.762 610.066,455.655C609.131,455.164 608.165,454.684 607.141,454.263C607.146,454.192 607.162,454.125 607.162,454.053C607.162,453.981 607.146,453.913 607.141,453.843C608.165,453.422 609.131,452.942 610.066,452.451C612.706,451.065 615.438,449.633 620.032,449.633L650.187,449.633C650.57,450.703 651.585,451.476 652.786,451.476C654.312,451.476 655.554,450.233 655.554,448.706C655.554,447.18 654.312,445.937 652.786,445.937C651.585,445.937 650.57,446.71 650.187,447.78L620.032,447.78C614.981,447.78 611.912,449.39 609.205,450.811C608.285,451.294 607.413,451.749 606.51,452.126C605.92,451.34 604.99,450.823 603.933,450.823C602.476,450.823 601.255,451.799 600.854,453.126L583.225,453.126C573.352,453.126 567.323,456.29 562.003,459.081C558.802,460.761 555.714,462.365 552.017,463.206C551.425,461.874 550.093,460.939 548.543,460.939C546.751,460.939 545.253,462.189 544.852,463.861C526.403,464.21 515.295,469.998 504.574,475.623C497.821,479.167 491.321,482.549 483.375,484.18C482.644,482.663 481.104,481.605 479.31,481.605C477.146,481.605 475.337,483.133 474.893,485.165C474.368,485.182 473.849,485.205 473.31,485.205L429.142,485.205C428.701,482.654 426.476,480.705 423.801,480.705C420.809,480.705 418.375,483.14 418.375,486.131C418.375,489.123 420.809,491.557 423.801,491.557C426.476,491.557 428.701,489.609 429.142,487.057L473.31,487.057C473.849,487.057 474.368,487.081 474.893,487.098C475.337,489.129 477.146,490.658 479.31,490.658C481.104,490.658 482.644,489.6 483.375,488.082C491.321,489.714 497.821,493.096 504.574,496.639C515.633,502.442 527.069,508.443 546.586,508.443L583.547,508.443C583.963,510.093 585.448,511.323 587.225,511.323C588.614,511.323 589.818,510.567 590.483,509.454C593.537,510.349 596.218,511.733 598.978,513.181C604.297,515.972 610.327,519.136 620.2,519.136L629.804,519.136C630.205,520.464 631.425,521.44 632.882,521.44C633.894,521.44 634.788,520.962 635.38,520.232C636.22,520.594 637.046,521 637.907,521.452C640.614,522.872 643.681,524.482 648.732,524.482L683.71,524.482C684.093,525.553 685.107,526.326 686.308,526.326C687.834,526.326 689.077,525.083 689.077,523.556C689.077,522.029 687.834,520.786 686.308,520.786" style="fill:white;fill-rule:nonzero;"/>
        </g>
    </g>
</svg>
