<?xml version="1.0" encoding="UTF-8" standalone="no"?>
<!DOCTYPE svg PUBLIC "-//W3C//DTD SVG 1.1//EN" "http://www.w3.org/Graphics/SVG/1.1/DTD/svg11.dtd">
<svg width="100%" height="100%" viewBox="0 0 587 81" version="1.1" xmlns="http://www.w3.org/2000/svg" xmlns:xlink="http://www.w3.org/1999/xlink" xml:space="preserve" style="fill-rule:evenodd;clip-rule:evenodd;stroke-linejoin:round;stroke-miterlimit:1.41421;">
    <g transform="matrix(1,0,0,1,-3667.38,-98.6239)">
        <g transform="matrix(1,0,0,1,3564,0)">
            <path d="M117.511,126.09C117.376,125.943 117.199,125.869 116.98,125.869L104.772,125.869C104.185,125.869 103.806,125.998 103.635,126.255C103.463,126.511 103.378,126.872 103.378,127.336L103.378,150.799C103.378,150.995 103.446,151.166 103.579,151.313C103.714,151.459 103.892,151.532 104.112,151.532L104.478,151.532C104.698,151.532 104.875,151.459 105.01,151.313C105.144,151.166 105.211,150.995 105.211,150.799L105.211,139.105L114.926,139.105C115.121,139.105 115.293,139.037 115.44,138.903C115.586,138.769 115.659,138.591 115.659,138.371L115.659,138.041C115.659,137.846 115.586,137.675 115.44,137.528C115.293,137.381 115.121,137.308 114.926,137.308L105.211,137.308L105.211,127.666L116.98,127.666C117.468,127.666 117.713,127.422 117.713,126.933L117.713,126.603C117.713,126.407 117.645,126.236 117.511,126.09" style="fill:rgb(99,116,132);fill-rule:nonzero;"/>
        </g>
        <g transform="matrix(1,0,0,1,3564,0)">
            <path d="M149.754,125.87L154.777,125.87C160.692,125.87 163.649,128.192 163.649,132.836C163.649,134.645 163.074,136.252 161.926,137.657C160.776,139.062 158.969,139.765 156.5,139.765L156.097,139.765L164.016,150.177C164.309,150.616 164.455,150.886 164.455,150.983C164.455,151.349 164.284,151.533 163.942,151.533L163.209,151.533C162.891,151.533 162.659,151.435 162.513,151.24L154.044,140.095C153.775,139.704 153.641,139.387 153.641,139.141C153.641,138.359 154.067,137.969 154.924,137.969L156.537,137.969C157.564,137.969 158.443,137.798 159.176,137.455C159.909,137.113 160.447,136.674 160.789,136.136C161.474,135.085 161.816,133.997 161.816,132.873C161.816,129.427 159.457,127.703 154.74,127.703L150.048,127.703L150.048,150.8C150.048,150.996 149.981,151.167 149.846,151.313C149.711,151.46 149.534,151.533 149.315,151.533L148.948,151.533C148.728,151.533 148.55,151.46 148.416,151.313C148.281,151.167 148.215,150.996 148.215,150.8L148.215,127.594C148.215,126.933 148.318,126.481 148.526,126.237C148.733,125.993 149.144,125.87 149.754,125.87" style="fill:rgb(99,116,132);fill-rule:nonzero;"/>
        </g>
        <g transform="matrix(1,0,0,1,3564,0)">
            <path d="M197.708,140.241L201.923,128.29L206.118,140.241L197.708,140.241ZM211.748,150.543L203.315,126.86C203.071,126.177 202.588,125.834 201.867,125.834C201.147,125.834 200.676,126.164 200.456,126.823L192.061,150.543C192.036,150.616 192.024,150.702 192.024,150.8C192.024,151.289 192.269,151.533 192.757,151.533L193.197,151.533C193.515,151.533 193.747,151.375 193.894,151.056L197.074,142.038L206.749,142.038L209.915,151.056C210.062,151.375 210.293,151.533 210.611,151.533L211.051,151.533C211.54,151.533 211.784,151.289 211.784,150.8C211.784,150.702 211.772,150.616 211.748,150.543" style="fill:rgb(99,116,132);fill-rule:nonzero;"/>
        </g>
        <g transform="matrix(1,0,0,1,3564,0)">
            <path d="M246.374,126.585C247.241,126.182 248.011,125.926 248.684,125.815C249.355,125.705 250.016,125.65 250.663,125.65C251.311,125.65 251.965,125.705 252.625,125.815C253.284,125.926 254.012,126.158 254.806,126.512C255.6,126.866 256.314,127.318 256.951,127.868C257.586,128.418 258.148,129.176 258.637,130.142C259.126,131.107 259.431,132.226 259.554,133.496C259.554,134.034 259.31,134.303 258.82,134.303L258.49,134.303C258.051,134.303 257.806,134.083 257.757,133.643C257.635,132.616 257.378,131.712 256.987,130.93C256.596,130.148 256.145,129.549 255.631,129.133C255.118,128.718 254.531,128.376 253.871,128.106C252.894,127.691 251.983,127.483 251.14,127.483C250.297,127.483 249.601,127.533 249.051,127.63C248.5,127.729 247.883,127.937 247.199,128.254C246.515,128.571 245.916,128.993 245.402,129.519C244.89,130.044 244.455,130.783 244.101,131.736C243.746,132.689 243.569,133.789 243.569,135.036L243.569,142.222C243.569,143.468 243.765,144.567 244.156,145.521C244.547,146.474 245.018,147.214 245.567,147.739C246.117,148.265 246.759,148.687 247.492,149.004C248.665,149.517 249.766,149.773 250.792,149.773C251.818,149.773 252.691,149.682 253.413,149.498C254.134,149.315 254.849,148.991 255.558,148.527C257.073,147.574 257.831,145.802 257.831,143.211C257.831,142.796 257.897,142.527 258.032,142.404C258.166,142.282 258.344,142.222 258.563,142.222L258.857,142.222C259.346,142.222 259.591,142.466 259.591,142.954C259.591,144.445 259.353,145.753 258.875,146.877C258.398,148.002 257.843,148.852 257.207,149.425C256.571,150 255.826,150.458 254.971,150.8C253.651,151.314 252.496,151.57 251.507,151.57C250.517,151.57 249.661,151.509 248.94,151.387C248.219,151.265 247.412,150.996 246.52,150.58C245.628,150.165 244.847,149.64 244.175,149.004C243.502,148.368 242.934,147.47 242.47,146.309C242.005,145.148 241.773,143.822 241.773,142.331L241.773,134.889C241.773,133.35 241.999,131.993 242.451,130.819C242.903,129.647 243.453,128.748 244.101,128.125C244.748,127.502 245.506,126.988 246.374,126.585" style="fill:rgb(99,116,132);fill-rule:nonzero;"/>
        </g>
        <g transform="matrix(1,0,0,1,3564,0)">
            <path d="M306.021,126.09C305.886,125.943 305.709,125.869 305.49,125.869L289.212,125.869C289.016,125.869 288.845,125.943 288.699,126.09C288.552,126.236 288.479,126.407 288.479,126.603L288.479,127.006C288.479,127.446 288.723,127.666 289.212,127.666L296.398,127.666L296.398,150.799C296.398,150.995 296.464,151.166 296.599,151.313C296.733,151.459 296.911,151.532 297.13,151.532L297.498,151.532C297.717,151.532 297.894,151.459 298.029,151.313C298.163,151.166 298.231,150.995 298.231,150.799L298.231,127.666L305.49,127.666C305.978,127.666 306.223,127.446 306.223,127.006L306.223,126.603C306.223,126.407 306.155,126.236 306.021,126.09" style="fill:rgb(99,116,132);fill-rule:nonzero;"/>
        </g>
        <g transform="matrix(1,0,0,1,3564,0)">
            <path d="M340.209,140.241L344.424,128.29L348.619,140.241L340.209,140.241ZM354.249,150.543L345.816,126.86C345.572,126.177 345.089,125.834 344.368,125.834C343.648,125.834 343.177,126.164 342.957,126.823L334.562,150.543C334.537,150.616 334.525,150.702 334.525,150.8C334.525,151.289 334.77,151.533 335.258,151.533L335.698,151.533C336.016,151.533 336.248,151.375 336.395,151.056L339.575,142.038L349.25,142.038L352.416,151.056C352.563,151.375 352.794,151.533 353.112,151.533L353.552,151.533C354.041,151.533 354.285,151.289 354.285,150.8C354.285,150.702 354.273,150.616 354.249,150.543" style="fill:rgb(99,116,132);fill-rule:nonzero;"/>
        </g>
        <g transform="matrix(1,0,0,1,3564,0)">
            <path d="M385.41,125.87L385.777,125.87C385.972,125.87 386.143,125.943 386.29,126.091C386.437,126.237 386.511,126.408 386.511,126.603L386.511,149.736L398.755,149.736C399.219,149.736 399.452,149.981 399.452,150.47L399.452,150.8C399.452,150.996 399.384,151.167 399.25,151.313C399.115,151.46 398.95,151.533 398.755,151.533L386.181,151.533C385.178,151.533 384.678,151.008 384.678,149.957L384.678,126.603C384.678,126.408 384.751,126.237 384.897,126.091C385.044,125.943 385.215,125.87 385.41,125.87" style="fill:rgb(99,116,132);fill-rule:nonzero;"/>
        </g>
        <g transform="matrix(1,0,0,1,3564,0)">
            <path d="M686.761,177.16C686.255,177.16 685.843,176.749 685.843,176.243C685.843,175.737 686.255,175.326 686.761,175.326C687.267,175.326 687.678,175.737 687.678,176.243C687.678,176.749 687.267,177.16 686.761,177.16M633.335,172.274C632.575,172.274 631.957,171.656 631.957,170.896C631.957,170.137 632.575,169.519 633.335,169.519C634.095,169.519 634.713,170.137 634.713,170.896C634.713,171.656 634.095,172.274 633.335,172.274M587.678,162.158C586.601,162.158 585.724,161.281 585.724,160.204C585.724,159.126 586.601,158.25 587.678,158.25C588.755,158.25 589.632,159.126 589.632,160.204C589.632,161.281 588.755,162.158 587.678,162.158M479.763,141.492C478.288,141.492 477.088,140.293 477.088,138.818C477.088,137.344 478.288,136.144 479.763,136.144C481.238,136.144 482.437,137.344 482.437,138.818C482.437,140.293 481.238,141.492 479.763,141.492M424.254,142.392C422.283,142.392 420.68,140.789 420.68,138.818C420.68,136.847 422.283,135.244 424.254,135.244C426.225,135.244 427.828,136.847 427.828,138.818C427.828,140.789 426.225,142.392 424.254,142.392M548.996,115.479C550.074,115.479 550.95,116.355 550.95,117.432C550.95,118.51 550.074,119.386 548.996,119.386C547.919,119.386 547.042,118.51 547.042,117.432C547.042,116.355 547.919,115.479 548.996,115.479M604.386,105.362C605.146,105.362 605.764,105.98 605.764,106.74C605.764,107.499 605.146,108.118 604.386,108.118C603.626,108.118 603.007,107.499 603.007,106.74C603.007,105.98 603.626,105.362 604.386,105.362M653.239,100.476C653.744,100.476 654.156,100.888 654.156,101.393C654.156,101.899 653.744,102.31 653.239,102.31C652.733,102.31 652.321,101.899 652.321,101.393C652.321,100.888 652.733,100.476 653.239,100.476M620.485,111.169C620.99,111.169 621.403,111.58 621.403,112.086C621.403,112.592 620.99,113.003 620.485,113.003C619.979,113.003 619.568,112.592 619.568,112.086C619.568,111.58 619.979,111.169 620.485,111.169M595.156,126.747C595.915,126.747 596.533,127.366 596.533,128.125C596.533,128.885 595.915,129.503 595.156,129.503C594.396,129.503 593.778,128.885 593.778,128.125C593.778,127.366 594.396,126.747 595.156,126.747M611.241,121.862C611.747,121.862 612.158,122.273 612.158,122.779C612.158,123.285 611.747,123.696 611.241,123.696C610.736,123.696 610.323,123.285 610.323,122.779C610.323,122.273 610.736,121.862 611.241,121.862M639.056,132.555C639.562,132.555 639.974,132.966 639.974,133.472C639.974,133.977 639.562,134.389 639.056,134.389C638.55,134.389 638.139,133.977 638.139,133.472C638.139,132.966 638.55,132.555 639.056,132.555M637.304,148.133C638.064,148.133 638.682,148.751 638.682,149.511C638.682,150.271 638.064,150.889 637.304,150.889C636.544,150.889 635.926,150.271 635.926,149.511C635.926,148.751 636.544,148.133 637.304,148.133M653.239,143.247C653.744,143.247 654.156,143.659 654.156,144.164C654.156,144.67 653.744,145.081 653.239,145.081C652.733,145.081 652.321,144.67 652.321,144.164C652.321,143.659 652.733,143.247 653.239,143.247M653.239,153.94C653.744,153.94 654.156,154.351 654.156,154.857C654.156,155.363 653.744,155.774 653.239,155.774C652.733,155.774 652.321,155.363 652.321,154.857C652.321,154.351 652.733,153.94 653.239,153.94M649.185,164.633C649.691,164.633 650.103,165.044 650.103,165.55C650.103,166.056 649.691,166.467 649.185,166.467C648.679,166.467 648.268,166.056 648.268,165.55C648.268,165.044 648.679,164.633 649.185,164.633M686.761,173.473C685.56,173.473 684.546,174.246 684.163,175.317L649.185,175.317C644.591,175.317 641.861,173.884 639.22,172.498C638.358,172.046 637.466,171.607 636.533,171.209C636.543,171.105 636.565,171.004 636.565,170.896C636.565,170.789 636.543,170.688 636.533,170.584C637.466,170.185 638.358,169.747 639.22,169.294C641.331,168.187 643.513,167.06 646.646,166.648C647.072,167.63 648.049,168.32 649.185,168.32C650.712,168.32 651.954,167.077 651.954,165.55C651.954,164.023 650.712,162.781 649.185,162.781C647.919,162.781 646.861,163.64 646.532,164.802C643.002,165.244 640.553,166.504 638.36,167.655C637.499,168.106 636.673,168.512 635.833,168.874C635.241,168.144 634.347,167.666 633.335,167.666C631.878,167.666 630.658,168.642 630.257,169.97L620.653,169.97C611.236,169.97 605.672,167.051 600.291,164.228C597.435,162.728 594.656,161.297 591.468,160.358C591.47,160.306 591.484,160.257 591.484,160.204C591.484,160.151 591.47,160.102 591.468,160.05C594.656,159.111 597.435,157.679 600.291,156.18C605.672,153.357 611.236,150.437 620.653,150.437L634.226,150.437C634.627,151.765 635.847,152.741 637.304,152.741C638.338,152.741 639.249,152.244 639.84,151.487C640.699,151.855 641.534,152.292 642.412,152.753C644.605,153.903 647.055,155.163 650.585,155.605C650.914,156.768 651.972,157.627 653.239,157.627C654.765,157.627 656.007,156.384 656.007,154.857C656.007,153.33 654.765,152.088 653.239,152.088C652.102,152.088 651.125,152.777 650.699,153.759C647.566,153.348 645.384,152.22 643.273,151.113C642.386,150.647 641.469,150.195 640.505,149.789C640.514,149.696 640.533,149.606 640.533,149.511C640.533,149.416 640.514,149.326 640.505,149.233C641.469,148.827 642.386,148.374 643.273,147.909C645.384,146.801 647.566,145.674 650.699,145.263C651.125,146.244 652.102,146.934 653.239,146.934C654.765,146.934 656.007,145.691 656.007,144.164C656.007,142.638 654.765,141.395 653.239,141.395C651.972,141.395 650.914,142.254 650.585,143.416C647.055,143.858 644.605,145.118 642.412,146.269C641.534,146.73 640.699,147.167 639.84,147.535C639.249,146.777 638.338,146.281 637.304,146.281C635.847,146.281 634.627,147.257 634.226,148.585L620.653,148.585C610.78,148.585 604.75,151.749 599.431,154.54C596.671,155.988 593.99,157.372 590.936,158.267C590.272,157.153 589.067,156.397 587.678,156.397C585.901,156.397 584.416,157.628 584,159.278L547.039,159.278C527.978,159.278 516.747,153.385 505.887,147.686C499.018,144.081 492.403,140.641 484.274,138.965C484.275,138.915 484.288,138.868 484.288,138.818C484.288,138.768 484.275,138.721 484.274,138.672C492.403,136.995 499.018,133.555 505.887,129.951C516.412,124.427 527.318,118.746 545.331,118.4C545.762,120.028 547.234,121.239 548.996,121.239C550.546,121.239 551.878,120.304 552.47,118.972C556.167,119.813 559.255,121.417 562.456,123.097C567.776,125.888 573.805,129.052 583.678,129.052L592.078,129.052C592.479,130.38 593.698,131.356 595.156,131.356C596.21,131.356 597.14,130.84 597.729,130.056C598.629,130.432 599.499,130.886 600.415,131.367C603.122,132.787 606.191,134.398 611.241,134.398L636.458,134.398C636.842,135.468 637.856,136.241 639.056,136.241C640.583,136.241 641.825,134.998 641.825,133.472C641.825,131.945 640.583,130.702 639.056,130.702C637.856,130.702 636.842,131.475 636.458,132.545L611.241,132.545C606.647,132.545 603.916,131.113 601.276,129.727C600.344,129.238 599.382,128.76 598.363,128.34C598.368,128.268 598.385,128.199 598.385,128.125C598.385,128.052 598.368,127.983 598.363,127.91C599.382,127.49 600.344,127.012 601.276,126.523C603.387,125.416 605.569,124.288 608.701,123.877C609.128,124.859 610.105,125.548 611.241,125.548C612.768,125.548 614.01,124.306 614.01,122.779C614.01,121.252 612.768,120.01 611.241,120.01C609.975,120.01 608.916,120.868 608.588,122.031C605.058,122.473 602.608,123.733 600.415,124.883C599.498,125.364 598.629,125.818 597.729,126.195C597.14,125.41 596.21,124.895 595.156,124.895C593.698,124.895 592.479,125.871 592.078,127.199L583.678,127.199C574.261,127.199 568.698,124.28 563.317,121.456C560.315,119.881 557.414,118.363 554.019,117.433C557.414,116.502 560.315,114.984 563.317,113.409C568.698,110.585 574.261,107.666 583.678,107.666L601.307,107.666C601.708,108.994 602.929,109.97 604.386,109.97C605.443,109.97 606.373,109.453 606.963,108.666C607.866,109.044 608.738,109.499 609.658,109.982C611.852,111.132 614.301,112.392 617.832,112.834C618.161,113.996 619.219,114.855 620.485,114.855C622.012,114.855 623.254,113.613 623.254,112.086C623.254,110.559 622.012,109.317 620.485,109.317C619.349,109.317 618.372,110.006 617.946,110.988C614.813,110.577 612.63,109.449 610.519,108.342C609.584,107.851 608.618,107.371 607.594,106.95C607.599,106.879 607.615,106.812 607.615,106.74C607.615,106.668 607.599,106.6 607.594,106.53C608.618,106.109 609.584,105.629 610.519,105.138C613.159,103.752 615.891,102.32 620.485,102.32L650.64,102.32C651.023,103.39 652.038,104.163 653.239,104.163C654.765,104.163 656.007,102.92 656.007,101.393C656.007,99.867 654.765,98.624 653.239,98.624C652.038,98.624 651.023,99.397 650.64,100.467L620.485,100.467C615.434,100.467 612.365,102.077 609.658,103.498C608.738,103.981 607.866,104.436 606.963,104.813C606.373,104.027 605.443,103.51 604.386,103.51C602.929,103.51 601.708,104.486 601.307,105.813L583.678,105.813C573.805,105.813 567.776,108.977 562.456,111.768C559.255,113.448 556.167,115.052 552.47,115.893C551.878,114.561 550.546,113.626 548.996,113.626C547.204,113.626 545.706,114.876 545.305,116.548C526.856,116.897 515.748,122.685 505.027,128.31C498.274,131.854 491.774,135.236 483.828,136.867C483.097,135.35 481.557,134.292 479.763,134.292C477.599,134.292 475.791,135.82 475.346,137.852C474.821,137.869 474.302,137.892 473.763,137.892L429.595,137.892C429.154,135.341 426.93,133.392 424.254,133.392C421.262,133.392 418.828,135.827 418.828,138.818C418.828,141.81 421.262,144.244 424.254,144.244C426.93,144.244 429.154,142.296 429.595,139.744L473.763,139.744C474.302,139.744 474.821,139.768 475.346,139.785C475.791,141.816 477.599,143.345 479.763,143.345C481.557,143.345 483.097,142.287 483.828,140.769C491.774,142.401 498.274,145.783 505.027,149.326C516.086,155.129 527.522,161.13 547.039,161.13L584,161.13C584.416,162.78 585.901,164.01 587.678,164.01C589.067,164.01 590.271,163.254 590.936,162.141C593.99,163.036 596.671,164.42 599.431,165.868C604.75,168.659 610.78,171.823 620.653,171.823L630.257,171.823C630.658,173.151 631.878,174.127 633.335,174.127C634.347,174.127 635.241,173.649 635.833,172.919C636.673,173.281 637.499,173.687 638.36,174.139C641.067,175.559 644.134,177.169 649.185,177.169L684.163,177.169C684.546,178.24 685.56,179.013 686.761,179.013C688.287,179.013 689.53,177.77 689.53,176.243C689.53,174.716 688.287,173.473 686.761,173.473" style="fill:rgb(99,116,132);fill-rule:nonzero;"/>
        </g>
    </g>
</svg>
