<?xml version="1.0" encoding="UTF-8" standalone="no"?>
<!DOCTYPE svg PUBLIC "-//W3C//DTD SVG 1.1//EN" "http://www.w3.org/Graphics/SVG/1.1/DTD/svg11.dtd">
<svg width="100%" height="100%" viewBox="0 0 1243 691" version="1.1" xmlns="http://www.w3.org/2000/svg" xmlns:xlink="http://www.w3.org/1999/xlink" xml:space="preserve" style="fill-rule:evenodd;clip-rule:evenodd;stroke-linejoin:round;stroke-miterlimit:1.41421;">
    <g transform="matrix(1,0,0,1,-3952.61,-887.358)">
        <g transform="matrix(4.16667,0,0,4.16667,3712.5,0)">
            <path d="M71.76,213.407C71.625,213.26 71.448,213.186 71.229,213.186L59.021,213.186C58.434,213.186 58.055,213.315 57.884,213.572C57.712,213.828 57.627,214.189 57.627,214.653L57.627,238.116C57.627,238.312 57.695,238.483 57.828,238.63C57.963,238.776 58.141,238.849 58.361,238.849L58.727,238.849C58.947,238.849 59.124,238.776 59.259,238.63C59.393,238.483 59.46,238.312 59.46,238.116L59.46,226.422L69.175,226.422C69.37,226.422 69.542,226.354 69.689,226.22C69.835,226.086 69.908,225.908 69.908,225.688L69.908,225.358C69.908,225.163 69.835,224.992 69.689,224.845C69.542,224.698 69.37,224.625 69.175,224.625L59.46,224.625L59.46,214.983L71.229,214.983C71.717,214.983 71.962,214.739 71.962,214.25L71.962,213.92C71.962,213.724 71.894,213.553 71.76,213.407" style="fill:white;fill-rule:nonzero;"/>
        </g>
        <g transform="matrix(4.16667,0,0,4.16667,3712.5,0)">
            <path d="M104.003,213.186L109.026,213.186C114.941,213.186 117.898,215.508 117.898,220.152C117.898,221.961 117.323,223.568 116.175,224.973C115.025,226.378 113.218,227.081 110.749,227.081L110.346,227.081L118.265,237.493C118.558,237.932 118.704,238.202 118.704,238.299C118.704,238.665 118.533,238.849 118.191,238.849L117.458,238.849C117.14,238.849 116.908,238.751 116.762,238.556L108.293,227.411C108.024,227.02 107.89,226.703 107.89,226.457C107.89,225.675 108.316,225.285 109.173,225.285L110.786,225.285C111.813,225.285 112.692,225.114 113.425,224.771C114.158,224.429 114.696,223.99 115.038,223.452C115.723,222.401 116.065,221.313 116.065,220.189C116.065,216.743 113.706,215.019 108.989,215.019L104.297,215.019L104.297,238.116C104.297,238.312 104.23,238.483 104.095,238.629C103.96,238.776 103.783,238.849 103.564,238.849L103.197,238.849C102.977,238.849 102.799,238.776 102.665,238.629C102.53,238.483 102.464,238.312 102.464,238.116L102.464,214.91C102.464,214.249 102.567,213.797 102.775,213.553C102.982,213.309 103.393,213.186 104.003,213.186" style="fill:white;fill-rule:nonzero;"/>
        </g>
        <g transform="matrix(4.16667,0,0,4.16667,3712.5,0)">
            <path d="M151.957,227.557L156.172,215.606L160.367,227.557L151.957,227.557ZM165.997,237.859L157.564,214.176C157.32,213.493 156.837,213.15 156.116,213.15C155.396,213.15 154.925,213.48 154.705,214.139L146.31,237.859C146.285,237.932 146.273,238.018 146.273,238.116C146.273,238.605 146.518,238.849 147.006,238.849L147.446,238.849C147.764,238.849 147.996,238.691 148.143,238.372L151.323,229.354L160.998,229.354L164.164,238.372C164.311,238.691 164.542,238.849 164.86,238.849L165.3,238.849C165.789,238.849 166.033,238.605 166.033,238.116C166.033,238.018 166.021,237.932 165.997,237.859" style="fill:white;fill-rule:nonzero;"/>
        </g>
        <g transform="matrix(4.16667,0,0,4.16667,3712.5,0)">
            <path d="M200.623,213.901C201.49,213.498 202.26,213.242 202.933,213.131C203.604,213.021 204.265,212.966 204.912,212.966C205.56,212.966 206.214,213.021 206.874,213.131C207.533,213.242 208.261,213.474 209.055,213.828C209.849,214.182 210.563,214.634 211.2,215.184C211.835,215.734 212.397,216.492 212.886,217.458C213.375,218.423 213.68,219.542 213.803,220.812C213.803,221.35 213.559,221.619 213.069,221.619L212.739,221.619C212.3,221.619 212.055,221.399 212.006,220.959C211.884,219.932 211.627,219.028 211.236,218.246C210.845,217.464 210.394,216.865 209.88,216.449C209.367,216.034 208.78,215.692 208.12,215.422C207.143,215.007 206.232,214.799 205.389,214.799C204.546,214.799 203.85,214.849 203.3,214.946C202.749,215.045 202.132,215.253 201.448,215.57C200.764,215.887 200.165,216.309 199.651,216.835C199.139,217.36 198.704,218.099 198.35,219.052C197.995,220.005 197.818,221.105 197.818,222.352L197.818,229.538C197.818,230.784 198.014,231.883 198.405,232.837C198.796,233.79 199.267,234.53 199.816,235.055C200.366,235.581 201.008,236.003 201.741,236.32C202.914,236.833 204.015,237.089 205.041,237.089C206.067,237.089 206.94,236.998 207.662,236.814C208.383,236.631 209.098,236.307 209.807,235.843C211.322,234.89 212.08,233.118 212.08,230.527C212.08,230.112 212.146,229.843 212.281,229.72C212.415,229.598 212.593,229.538 212.812,229.538L213.106,229.538C213.595,229.538 213.84,229.782 213.84,230.27C213.84,231.761 213.602,233.069 213.124,234.193C212.647,235.318 212.092,236.168 211.456,236.741C210.82,237.316 210.075,237.774 209.22,238.116C207.9,238.63 206.745,238.886 205.756,238.886C204.766,238.886 203.91,238.825 203.189,238.703C202.468,238.581 201.661,238.312 200.769,237.896C199.877,237.481 199.096,236.956 198.424,236.32C197.751,235.684 197.183,234.786 196.719,233.625C196.254,232.464 196.022,231.138 196.022,229.647L196.022,222.205C196.022,220.666 196.248,219.309 196.7,218.135C197.152,216.963 197.702,216.064 198.35,215.441C198.997,214.818 199.755,214.304 200.623,213.901" style="fill:white;fill-rule:nonzero;"/>
        </g>
        <g transform="matrix(4.16667,0,0,4.16667,3712.5,0)">
            <path d="M260.271,213.407C260.136,213.26 259.959,213.186 259.74,213.186L243.462,213.186C243.266,213.186 243.095,213.26 242.949,213.407C242.802,213.553 242.729,213.724 242.729,213.92L242.729,214.323C242.729,214.763 242.973,214.983 243.462,214.983L250.648,214.983L250.648,238.116C250.648,238.312 250.714,238.483 250.849,238.63C250.983,238.776 251.161,238.849 251.38,238.849L251.748,238.849C251.967,238.849 252.144,238.776 252.279,238.63C252.413,238.483 252.481,238.312 252.481,238.116L252.481,214.983L259.74,214.983C260.228,214.983 260.473,214.763 260.473,214.323L260.473,213.92C260.473,213.724 260.405,213.553 260.271,213.407" style="fill:white;fill-rule:nonzero;"/>
        </g>
        <g transform="matrix(4.16667,0,0,4.16667,3712.5,0)">
            <path d="M294.458,227.557L298.673,215.606L302.868,227.557L294.458,227.557ZM308.498,237.859L300.065,214.176C299.821,213.493 299.338,213.15 298.617,213.15C297.897,213.15 297.426,213.48 297.206,214.139L288.811,237.859C288.786,237.932 288.774,238.018 288.774,238.116C288.774,238.605 289.019,238.849 289.507,238.849L289.947,238.849C290.265,238.849 290.497,238.691 290.644,238.372L293.824,229.354L303.499,229.354L306.665,238.372C306.812,238.691 307.043,238.849 307.361,238.849L307.801,238.849C308.29,238.849 308.534,238.605 308.534,238.116C308.534,238.018 308.522,237.932 308.498,237.859" style="fill:white;fill-rule:nonzero;"/>
        </g>
        <g transform="matrix(4.16667,0,0,4.16667,3712.5,0)">
            <path d="M339.659,213.186L340.026,213.186C340.221,213.186 340.392,213.259 340.539,213.407C340.686,213.553 340.76,213.724 340.76,213.919L340.76,237.052L353.004,237.052C353.468,237.052 353.701,237.297 353.701,237.786L353.701,238.116C353.701,238.312 353.633,238.483 353.499,238.629C353.364,238.776 353.199,238.849 353.004,238.849L340.43,238.849C339.427,238.849 338.927,238.324 338.927,237.273L338.927,213.919C338.927,213.724 339,213.553 339.146,213.407C339.293,213.259 339.464,213.186 339.659,213.186" style="fill:white;fill-rule:nonzero;"/>
        </g>
        <g transform="matrix(4.16667,0,0,4.16667,3712.5,0)">
            <path d="M339.895,339.012C339.389,339.012 338.977,338.601 338.977,338.095C338.977,337.589 339.389,337.178 339.895,337.178C340.401,337.178 340.812,337.589 340.812,338.095C340.812,338.601 340.401,339.012 339.895,339.012M286.469,334.126C285.709,334.126 285.091,333.508 285.091,332.748C285.091,331.989 285.709,331.371 286.469,331.371C287.229,331.371 287.847,331.989 287.847,332.748C287.847,333.508 287.229,334.126 286.469,334.126M240.812,324.01C239.735,324.01 238.858,323.133 238.858,322.056C238.858,320.978 239.735,320.102 240.812,320.102C241.889,320.102 242.766,320.978 242.766,322.056C242.766,323.133 241.889,324.01 240.812,324.01M132.897,303.344C131.422,303.344 130.222,302.145 130.222,300.67C130.222,299.196 131.422,297.996 132.897,297.996C134.372,297.996 135.571,299.196 135.571,300.67C135.571,302.145 134.372,303.344 132.897,303.344M77.388,304.244C75.417,304.244 73.814,302.641 73.814,300.67C73.814,298.699 75.417,297.096 77.388,297.096C79.359,297.096 80.962,298.699 80.962,300.67C80.962,302.641 79.359,304.244 77.388,304.244M202.13,277.331C203.207,277.331 204.084,278.207 204.084,279.284C204.084,280.362 203.207,281.238 202.13,281.238C201.053,281.238 200.176,280.362 200.176,279.284C200.176,278.207 201.053,277.331 202.13,277.331M257.52,267.214C258.28,267.214 258.898,267.832 258.898,268.592C258.898,269.351 258.28,269.97 257.52,269.97C256.76,269.97 256.141,269.351 256.141,268.592C256.141,267.832 256.76,267.214 257.52,267.214M306.373,262.328C306.878,262.328 307.29,262.74 307.29,263.245C307.29,263.751 306.878,264.162 306.373,264.162C305.867,264.162 305.455,263.751 305.455,263.245C305.455,262.74 305.867,262.328 306.373,262.328M273.619,273.021C274.124,273.021 274.537,273.432 274.537,273.938C274.537,274.444 274.124,274.855 273.619,274.855C273.113,274.855 272.702,274.444 272.702,273.938C272.702,273.432 273.113,273.021 273.619,273.021M248.29,288.599C249.049,288.599 249.667,289.218 249.667,289.977C249.667,290.737 249.049,291.355 248.29,291.355C247.53,291.355 246.912,290.737 246.912,289.977C246.912,289.218 247.53,288.599 248.29,288.599M264.375,283.714C264.881,283.714 265.292,284.125 265.292,284.631C265.292,285.137 264.881,285.548 264.375,285.548C263.87,285.548 263.457,285.137 263.457,284.631C263.457,284.125 263.87,283.714 264.375,283.714M292.19,294.407C292.696,294.407 293.108,294.818 293.108,295.324C293.108,295.829 292.696,296.241 292.19,296.241C291.684,296.241 291.273,295.829 291.273,295.324C291.273,294.818 291.684,294.407 292.19,294.407M290.438,309.985C291.198,309.985 291.816,310.603 291.816,311.363C291.816,312.123 291.198,312.741 290.438,312.741C289.678,312.741 289.06,312.123 289.06,311.363C289.06,310.603 289.678,309.985 290.438,309.985M306.373,305.099C306.878,305.099 307.29,305.511 307.29,306.016C307.29,306.522 306.878,306.933 306.373,306.933C305.867,306.933 305.455,306.522 305.455,306.016C305.455,305.511 305.867,305.099 306.373,305.099M306.373,315.792C306.878,315.792 307.29,316.203 307.29,316.709C307.29,317.215 306.878,317.626 306.373,317.626C305.867,317.626 305.455,317.215 305.455,316.709C305.455,316.203 305.867,315.792 306.373,315.792M302.319,326.485C302.825,326.485 303.237,326.896 303.237,327.402C303.237,327.908 302.825,328.319 302.319,328.319C301.813,328.319 301.402,327.908 301.402,327.402C301.402,326.896 301.813,326.485 302.319,326.485M339.895,335.325C338.694,335.325 337.68,336.098 337.297,337.169L302.319,337.169C297.725,337.169 294.995,335.736 292.354,334.35C291.492,333.898 290.6,333.459 289.667,333.061C289.677,332.957 289.699,332.856 289.699,332.748C289.699,332.641 289.677,332.54 289.667,332.436C290.6,332.037 291.492,331.599 292.354,331.146C294.465,330.039 296.647,328.912 299.78,328.5C300.206,329.482 301.183,330.172 302.319,330.172C303.846,330.172 305.088,328.929 305.088,327.402C305.088,325.875 303.846,324.633 302.319,324.633C301.053,324.633 299.995,325.492 299.666,326.654C296.136,327.096 293.687,328.356 291.494,329.507C290.633,329.958 289.807,330.364 288.967,330.726C288.375,329.996 287.481,329.518 286.469,329.518C285.012,329.518 283.792,330.494 283.391,331.822L273.787,331.822C264.37,331.822 258.806,328.903 253.425,326.08C250.569,324.58 247.79,323.149 244.602,322.21C244.604,322.158 244.618,322.109 244.618,322.056C244.618,322.003 244.604,321.954 244.602,321.902C247.79,320.963 250.569,319.531 253.425,318.032C258.806,315.209 264.37,312.289 273.787,312.289L287.36,312.289C287.761,313.617 288.981,314.593 290.438,314.593C291.472,314.593 292.383,314.096 292.974,313.339C293.833,313.707 294.668,314.144 295.546,314.605C297.739,315.755 300.189,317.015 303.719,317.457C304.048,318.62 305.106,319.479 306.373,319.479C307.899,319.479 309.141,318.236 309.141,316.709C309.141,315.182 307.899,313.94 306.373,313.94C305.236,313.94 304.259,314.629 303.833,315.611C300.7,315.2 298.518,314.072 296.407,312.965C295.52,312.499 294.603,312.047 293.639,311.641C293.648,311.548 293.667,311.458 293.667,311.363C293.667,311.268 293.648,311.178 293.639,311.085C294.603,310.679 295.52,310.226 296.407,309.761C298.518,308.653 300.7,307.526 303.833,307.115C304.259,308.096 305.236,308.786 306.373,308.786C307.899,308.786 309.141,307.543 309.141,306.016C309.141,304.49 307.899,303.247 306.373,303.247C305.106,303.247 304.048,304.106 303.719,305.268C300.189,305.71 297.739,306.97 295.546,308.121C294.668,308.582 293.833,309.019 292.974,309.387C292.383,308.629 291.472,308.133 290.438,308.133C288.981,308.133 287.761,309.109 287.36,310.437L273.787,310.437C263.914,310.437 257.884,313.601 252.565,316.392C249.805,317.84 247.124,319.224 244.07,320.119C243.406,319.005 242.201,318.249 240.812,318.249C239.035,318.249 237.55,319.48 237.134,321.13L200.173,321.13C181.112,321.13 169.881,315.237 159.021,309.538C152.152,305.933 145.537,302.493 137.407,300.817C137.409,300.767 137.422,300.72 137.422,300.67C137.422,300.62 137.409,300.573 137.407,300.524C145.537,298.847 152.152,295.407 159.021,291.803C169.546,286.279 180.452,280.598 198.465,280.252C198.896,281.88 200.368,283.091 202.13,283.091C203.68,283.091 205.012,282.156 205.604,280.824C209.301,281.665 212.389,283.269 215.59,284.949C220.91,287.74 226.939,290.904 236.812,290.904L245.212,290.904C245.613,292.232 246.832,293.208 248.29,293.208C249.344,293.208 250.274,292.692 250.863,291.908C251.763,292.284 252.633,292.738 253.549,293.219C256.256,294.639 259.325,296.25 264.375,296.25L289.592,296.25C289.976,297.32 290.99,298.093 292.19,298.093C293.717,298.093 294.959,296.85 294.959,295.324C294.959,293.797 293.717,292.554 292.19,292.554C290.99,292.554 289.976,293.327 289.592,294.397L264.375,294.397C259.781,294.397 257.05,292.965 254.41,291.579C253.478,291.09 252.516,290.612 251.497,290.192C251.502,290.12 251.519,290.051 251.519,289.977C251.519,289.904 251.502,289.835 251.497,289.762C252.516,289.342 253.478,288.864 254.41,288.375C256.521,287.268 258.703,286.14 261.835,285.729C262.262,286.711 263.239,287.4 264.375,287.4C265.902,287.4 267.144,286.158 267.144,284.631C267.144,283.104 265.902,281.862 264.375,281.862C263.109,281.862 262.05,282.72 261.722,283.883C258.192,284.325 255.742,285.585 253.549,286.735C252.632,287.216 251.763,287.67 250.863,288.047C250.274,287.262 249.344,286.747 248.29,286.747C246.832,286.747 245.613,287.723 245.212,289.051L236.812,289.051C227.395,289.051 221.832,286.132 216.451,283.308C213.449,281.733 210.548,280.215 207.153,279.285C210.548,278.354 213.449,276.836 216.451,275.261C221.832,272.437 227.395,269.518 236.812,269.518L254.441,269.518C254.842,270.846 256.063,271.822 257.52,271.822C258.577,271.822 259.507,271.305 260.097,270.518C261,270.896 261.872,271.351 262.792,271.834C264.986,272.984 267.435,274.244 270.966,274.686C271.295,275.848 272.353,276.707 273.619,276.707C275.146,276.707 276.388,275.465 276.388,273.938C276.388,272.411 275.146,271.169 273.619,271.169C272.483,271.169 271.506,271.858 271.08,272.84C267.947,272.429 265.764,271.301 263.653,270.194C262.718,269.703 261.752,269.223 260.728,268.802C260.733,268.731 260.749,268.664 260.749,268.592C260.749,268.52 260.733,268.452 260.728,268.382C261.752,267.961 262.718,267.481 263.653,266.99C266.293,265.604 269.025,264.172 273.619,264.172L303.774,264.172C304.157,265.242 305.172,266.015 306.373,266.015C307.899,266.015 309.141,264.772 309.141,263.245C309.141,261.719 307.899,260.476 306.373,260.476C305.172,260.476 304.157,261.249 303.774,262.319L273.619,262.319C268.568,262.319 265.499,263.929 262.792,265.35C261.872,265.833 261,266.288 260.097,266.665C259.507,265.879 258.577,265.362 257.52,265.362C256.063,265.362 254.842,266.338 254.441,267.665L236.812,267.665C226.939,267.665 220.91,270.829 215.59,273.62C212.389,275.3 209.301,276.904 205.604,277.745C205.012,276.413 203.68,275.478 202.13,275.478C200.338,275.478 198.84,276.728 198.439,278.4C179.99,278.749 168.882,284.537 158.161,290.162C151.408,293.706 144.908,297.088 136.962,298.719C136.231,297.202 134.691,296.144 132.897,296.144C130.733,296.144 128.924,297.672 128.48,299.704C127.955,299.721 127.436,299.744 126.897,299.744L82.729,299.744C82.288,297.193 80.064,295.244 77.388,295.244C74.396,295.244 71.962,297.679 71.962,300.67C71.962,303.662 74.396,306.096 77.388,306.096C80.064,306.096 82.288,304.148 82.729,301.596L126.897,301.596C127.436,301.596 127.955,301.62 128.48,301.637C128.924,303.668 130.733,305.197 132.897,305.197C134.691,305.197 136.231,304.139 136.962,302.621C144.908,304.253 151.408,307.635 158.161,311.178C169.22,316.981 180.656,322.982 200.173,322.982L237.134,322.982C237.55,324.632 239.035,325.862 240.812,325.862C242.201,325.862 243.405,325.106 244.07,323.993C247.124,324.888 249.805,326.272 252.565,327.72C257.884,330.511 263.914,333.675 273.787,333.675L283.391,333.675C283.792,335.003 285.012,335.979 286.469,335.979C287.481,335.979 288.375,335.501 288.967,334.771C289.807,335.133 290.633,335.539 291.494,335.991C294.201,337.411 297.268,339.021 302.319,339.021L337.297,339.021C337.68,340.092 338.694,340.865 339.895,340.865C341.421,340.865 342.664,339.622 342.664,338.095C342.664,336.568 341.421,335.325 339.895,335.325" style="fill:white;fill-rule:nonzero;"/>
        </g>
        <g transform="matrix(4.16667,0,0,4.16667,3712.5,0)">
            <g>
                <text x="57.627px" y="378.44px" style="font-family:'Arial-BoldMT', 'Arial', sans-serif;font-weight:700;font-size:16px;fill:black;">H</text>
                <text x="79.935px" y="378.44px" style="font-family:'Arial-BoldMT', 'Arial', sans-serif;font-weight:700;font-size:16px;fill:black;">A</text>
                <text x="101.636px" y="378.44px" style="font-family:'Arial-BoldMT', 'Arial', sans-serif;font-weight:700;font-size:16px;fill:black;">R <tspan x="122.748px " y="378.44px ">D</tspan></text>
                <text x="144.075px" y="378.44px" style="font-family:'Arial-BoldMT', 'Arial', sans-serif;font-weight:700;font-size:16px;fill:black;">W</text>
                <text x="168.64px" y="378.44px" style="font-family:'Arial-BoldMT', 'Arial', sans-serif;font-weight:700;font-size:16px;fill:black;">A</text>
                <text x="190.341px" y="378.44px" style="font-family:'Arial-BoldMT', 'Arial', sans-serif;font-weight:700;font-size:16px;fill:black;">R <tspan x="211.453px " y="378.44px ">E</tspan></text>
                <text x="246.302px" y="378.44px" style="font-family:'Arial-BoldMT', 'Arial', sans-serif;font-weight:700;font-size:16px;fill:black;">D</text>
                <text x="267.629px" y="378.44px" style="font-family:'Arial-BoldMT', 'Arial', sans-serif;font-weight:700;font-size:16px;fill:black;">E</text>
                <text x="287.536px" y="378.44px" style="font-family:'Arial-BoldMT', 'Arial', sans-serif;font-weight:700;font-size:16px;fill:black;">S</text>
                <text x="308.196px" y="378.44px" style="font-family:'Arial-BoldMT', 'Arial', sans-serif;font-weight:700;font-size:16px;fill:black;">I</text>
                <text x="323.811px" y="378.44px" style="font-family:'Arial-BoldMT', 'Arial', sans-serif;font-weight:700;font-size:16px;fill:black;">G</text>
                <text x="345.598px" y="378.44px" style="font-family:'Arial-BoldMT', 'Arial', sans-serif;font-weight:700;font-size:16px;fill:black;">N</text>
            </g>
        </g>
    </g>
</svg>
