<?xml version="1.0" encoding="UTF-8" standalone="no"?><!DOCTYPE svg PUBLIC "-//W3C//DTD SVG 1.1//EN" "http://www.w3.org/Graphics/SVG/1.1/DTD/svg11.dtd"><svg width="100%" height="100%" viewBox="0 0 299 166" version="1.1" xmlns="http://www.w3.org/2000/svg" xmlns:xlink="http://www.w3.org/1999/xlink" xml:space="preserve" style="fill-rule:evenodd;clip-rule:evenodd;stroke-linejoin:round;stroke-miterlimit:1.41421;"><path d="M14.133,0.441c-0.135,-0.147 -0.312,-0.221 -0.531,-0.221l-12.208,0c-0.587,0 -0.966,0.129 -1.137,0.386c-0.172,0.256 -0.257,0.617 -0.257,1.081l0,23.463c0,0.196 0.068,0.367 0.201,0.514c0.135,0.146 0.313,0.219 0.533,0.219l0.366,0c0.22,0 0.397,-0.073 0.532,-0.219c0.134,-0.147 0.201,-0.318 0.201,-0.514l0,-11.694l9.715,0c0.195,0 0.367,-0.068 0.514,-0.202c0.146,-0.134 0.219,-0.312 0.219,-0.532l0,-0.33c0,-0.195 -0.073,-0.366 -0.219,-0.513c-0.147,-0.147 -0.319,-0.22 -0.514,-0.22l-9.715,0l0,-9.642l11.769,0c0.488,0 0.733,-0.244 0.733,-0.733l0,-0.33c0,-0.196 -0.068,-0.367 -0.202,-0.513" style="fill:#fff;fill-rule:nonzero;"/><path d="M46.376,0.22l5.023,0c5.915,0 8.872,2.322 8.872,6.966c0,1.809 -0.575,3.416 -1.723,4.821c-1.15,1.405 -2.957,2.108 -5.426,2.108l-0.403,0l7.919,10.412c0.293,0.439 0.439,0.709 0.439,0.806c0,0.366 -0.171,0.55 -0.513,0.55l-0.733,0c-0.318,0 -0.55,-0.098 -0.696,-0.293l-8.469,-11.145c-0.269,-0.391 -0.403,-0.708 -0.403,-0.954c0,-0.782 0.426,-1.172 1.283,-1.172l1.613,0c1.027,0 1.906,-0.171 2.639,-0.514c0.733,-0.342 1.271,-0.781 1.613,-1.319c0.685,-1.051 1.027,-2.139 1.027,-3.263c0,-3.446 -2.359,-5.17 -7.076,-5.17l-4.692,0l0,23.097c0,0.196 -0.067,0.367 -0.202,0.513c-0.135,0.147 -0.312,0.22 -0.531,0.22l-0.367,0c-0.22,0 -0.398,-0.073 -0.532,-0.22c-0.135,-0.146 -0.201,-0.317 -0.201,-0.513l0,-23.206c0,-0.661 0.103,-1.113 0.311,-1.357c0.207,-0.244 0.618,-0.367 1.228,-0.367" style="fill:#fff;fill-rule:nonzero;"/><path d="M94.33,14.591l4.215,-11.951l4.195,11.951l-8.41,0ZM108.37,24.893l-8.433,-23.683c-0.244,-0.683 -0.727,-1.026 -1.448,-1.026c-0.72,0 -1.191,0.33 -1.411,0.989l-8.395,23.72c-0.025,0.073 -0.037,0.159 -0.037,0.257c0,0.489 0.245,0.733 0.733,0.733l0.44,0c0.318,0 0.55,-0.158 0.697,-0.477l3.18,-9.018l9.675,0l3.166,9.018c0.147,0.319 0.378,0.477 0.696,0.477l0.44,0c0.489,0 0.733,-0.244 0.733,-0.733c0,-0.098 -0.012,-0.184 -0.036,-0.257" style="fill:#fff;fill-rule:nonzero;"/><path d="M142.996,0.935c0.867,-0.403 1.637,-0.659 2.31,-0.77c0.671,-0.11 1.332,-0.165 1.979,-0.165c0.648,0 1.302,0.055 1.962,0.165c0.659,0.111 1.387,0.343 2.181,0.697c0.794,0.354 1.508,0.806 2.145,1.356c0.635,0.55 1.197,1.308 1.686,2.274c0.489,0.965 0.794,2.084 0.917,3.354c0,0.538 -0.244,0.807 -0.734,0.807l-0.33,0c-0.439,0 -0.684,-0.22 -0.733,-0.66c-0.122,-1.027 -0.379,-1.931 -0.77,-2.713c-0.391,-0.782 -0.842,-1.381 -1.356,-1.797c-0.513,-0.415 -1.1,-0.757 -1.76,-1.027c-0.977,-0.415 -1.888,-0.623 -2.731,-0.623c-0.843,0 -1.539,0.05 -2.089,0.147c-0.551,0.099 -1.168,0.307 -1.852,0.624c-0.684,0.317 -1.283,0.739 -1.797,1.265c-0.512,0.525 -0.947,1.264 -1.301,2.217c-0.355,0.953 -0.532,2.053 -0.532,3.3l0,7.186c0,1.246 0.196,2.345 0.587,3.299c0.391,0.953 0.862,1.693 1.411,2.218c0.55,0.526 1.192,0.948 1.925,1.265c1.173,0.513 2.274,0.769 3.3,0.769c1.026,0 1.899,-0.091 2.621,-0.275c0.721,-0.183 1.436,-0.507 2.145,-0.971c1.515,-0.953 2.273,-2.725 2.273,-5.316c0,-0.415 0.066,-0.684 0.201,-0.807c0.134,-0.122 0.312,-0.182 0.531,-0.182l0.294,0c0.489,0 0.734,0.244 0.734,0.732c0,1.491 -0.238,2.799 -0.716,3.923c-0.477,1.125 -1.032,1.975 -1.668,2.548c-0.636,0.575 -1.381,1.033 -2.236,1.375c-1.32,0.514 -2.475,0.77 -3.464,0.77c-0.99,0 -1.846,-0.061 -2.567,-0.183c-0.721,-0.122 -1.528,-0.391 -2.42,-0.807c-0.892,-0.415 -1.673,-0.94 -2.345,-1.576c-0.673,-0.636 -1.241,-1.534 -1.705,-2.695c-0.465,-1.161 -0.697,-2.487 -0.697,-3.978l0,-7.442c0,-1.539 0.226,-2.896 0.678,-4.07c0.452,-1.172 1.002,-2.071 1.65,-2.694c0.647,-0.623 1.405,-1.137 2.273,-1.54" style="fill:#fff;fill-rule:nonzero;"/><path d="M202.644,0.441c-0.135,-0.147 -0.312,-0.221 -0.531,-0.221l-16.278,0c-0.196,0 -0.367,0.074 -0.513,0.221c-0.147,0.146 -0.22,0.317 -0.22,0.513l0,0.403c0,0.44 0.244,0.66 0.733,0.66l7.186,0l0,23.133c0,0.196 0.066,0.367 0.201,0.514c0.134,0.146 0.312,0.219 0.531,0.219l0.368,0c0.219,0 0.396,-0.073 0.531,-0.219c0.134,-0.147 0.202,-0.318 0.202,-0.514l0,-23.133l7.259,0c0.488,0 0.733,-0.22 0.733,-0.66l0,-0.403c0,-0.196 -0.068,-0.367 -0.202,-0.513" style="fill:#fff;fill-rule:nonzero;"/><path d="M236.831,14.591l4.215,-11.951l4.195,11.951l-8.41,0ZM250.871,24.893l-8.433,-23.683c-0.244,-0.683 -0.727,-1.026 -1.448,-1.026c-0.72,0 -1.191,0.33 -1.411,0.989l-8.395,23.72c-0.025,0.073 -0.037,0.159 -0.037,0.257c0,0.489 0.245,0.733 0.733,0.733l0.44,0c0.318,0 0.55,-0.158 0.697,-0.477l3.18,-9.018l9.675,0l3.166,9.018c0.147,0.319 0.378,0.477 0.696,0.477l0.44,0c0.489,0 0.733,-0.244 0.733,-0.733c0,-0.098 -0.012,-0.184 -0.036,-0.257" style="fill:#fff;fill-rule:nonzero;"/><path d="M282.032,0.22l0.367,0c0.195,0 0.366,0.073 0.513,0.221c0.147,0.146 0.221,0.317 0.221,0.512l0,23.133l12.244,0c0.464,0 0.697,0.245 0.697,0.734l0,0.33c0,0.196 -0.068,0.367 -0.202,0.513c-0.135,0.147 -0.3,0.22 -0.495,0.22l-12.574,0c-1.003,0 -1.503,-0.525 -1.503,-1.576l0,-23.354c0,-0.195 0.073,-0.366 0.219,-0.512c0.147,-0.148 0.318,-0.221 0.513,-0.221" style="fill:#fff;fill-rule:nonzero;"/><path d="M282.268,126.047c-0.506,0 -0.918,-0.411 -0.918,-0.917c0,-0.506 0.412,-0.917 0.918,-0.917c0.506,0 0.917,0.411 0.917,0.917c0,0.506 -0.411,0.917 -0.917,0.917M228.842,121.161c-0.76,0 -1.378,-0.618 -1.378,-1.378c0,-0.759 0.618,-1.377 1.378,-1.377c0.76,0 1.378,0.618 1.378,1.377c0,0.76 -0.618,1.378 -1.378,1.378M183.185,111.045c-1.077,0 -1.954,-0.877 -1.954,-1.954c0,-1.078 0.877,-1.954 1.954,-1.954c1.077,-0.001 1.954,0.876 1.954,1.954c0,1.077 -0.877,1.954 -1.954,1.954M75.27,90.379c-1.475,0 -2.675,-1.199 -2.675,-2.674c0,-1.474 1.2,-2.674 2.675,-2.674c1.475,0 2.674,1.2 2.674,2.674c0,1.475 -1.199,2.674 -2.674,2.674M19.761,91.279c-1.971,0 -3.574,-1.603 -3.574,-3.574c0,-1.971 1.603,-3.574 3.574,-3.574c1.971,0 3.574,1.603 3.574,3.574c0,1.971 -1.603,3.574 -3.574,3.574M144.503,64.366c1.077,0 1.954,0.876 1.954,1.953c0,1.078 -0.877,1.954 -1.954,1.954c-1.077,0 -1.954,-0.876 -1.954,-1.954c0,-1.077 0.877,-1.953 1.954,-1.953M199.893,54.249c0.76,0 1.378,0.618 1.378,1.378c0,0.759 -0.618,1.378 -1.378,1.378c-0.76,0 -1.379,-0.619 -1.379,-1.378c0,-0.76 0.619,-1.378 1.379,-1.378M248.746,49.363c0.505,0 0.917,0.412 0.917,0.917c0,0.506 -0.412,0.917 -0.917,0.917c-0.506,0 -0.918,-0.411 -0.918,-0.917c0,-0.505 0.412,-0.917 0.918,-0.917M215.992,60.055c0.505,0 0.918,0.412 0.918,0.918c0,0.506 -0.413,0.917 -0.918,0.917c-0.506,0 -0.917,-0.411 -0.917,-0.917c0,-0.506 0.411,-0.918 0.917,-0.918M190.663,75.634c0.759,0 1.377,0.619 1.377,1.378c0,0.76 -0.618,1.378 -1.377,1.378c-0.76,0 -1.378,-0.618 -1.378,-1.378c0,-0.759 0.618,-1.378 1.378,-1.378M206.748,70.749c0.506,0 0.917,0.411 0.917,0.917c0,0.506 -0.411,0.917 -0.917,0.917c-0.505,0 -0.918,-0.411 -0.918,-0.917c0,-0.506 0.413,-0.917 0.918,-0.917M234.563,81.442c0.506,0 0.918,0.411 0.918,0.917c0,0.505 -0.412,0.917 -0.918,0.917c-0.506,0 -0.917,-0.412 -0.917,-0.917c0,-0.506 0.411,-0.917 0.917,-0.917M232.811,97.02c0.76,0 1.378,0.618 1.378,1.378c0,0.76 -0.618,1.378 -1.378,1.378c-0.76,0 -1.378,-0.618 -1.378,-1.378c0,-0.76 0.618,-1.378 1.378,-1.378M248.746,92.134c0.505,0 0.917,0.412 0.917,0.917c0,0.506 -0.412,0.917 -0.917,0.917c-0.506,0 -0.918,-0.411 -0.918,-0.917c0,-0.505 0.412,-0.917 0.918,-0.917M248.746,102.827c0.505,0 0.917,0.411 0.917,0.917c0,0.506 -0.412,0.917 -0.917,0.917c-0.506,0 -0.918,-0.411 -0.918,-0.917c0,-0.506 0.412,-0.917 0.918,-0.917M244.692,113.52c0.506,0 0.918,0.411 0.918,0.917c0,0.506 -0.412,0.917 -0.918,0.917c-0.506,0 -0.917,-0.411 -0.917,-0.917c0,-0.506 0.411,-0.917 0.917,-0.917M282.268,122.36c-1.201,0 -2.215,0.773 -2.598,1.844l-34.978,0c-4.594,0 -7.324,-1.433 -9.965,-2.819c-0.862,-0.452 -1.754,-0.891 -2.687,-1.289c0.01,-0.104 0.032,-0.205 0.032,-0.313c0,-0.107 -0.022,-0.208 -0.032,-0.312c0.933,-0.399 1.825,-0.837 2.687,-1.29c2.111,-1.107 4.293,-2.234 7.426,-2.646c0.426,0.982 1.403,1.672 2.539,1.672c1.527,0 2.769,-1.243 2.769,-2.77c0,-1.527 -1.242,-2.769 -2.769,-2.769c-1.266,0 -2.324,0.859 -2.653,2.021c-3.53,0.442 -5.979,1.702 -8.172,2.853c-0.861,0.451 -1.687,0.857 -2.527,1.219c-0.592,-0.73 -1.486,-1.208 -2.498,-1.208c-1.457,0 -2.677,0.976 -3.078,2.304l-9.604,0c-9.417,0 -14.981,-2.919 -20.362,-5.742c-2.856,-1.5 -5.635,-2.931 -8.823,-3.87c0.002,-0.052 0.016,-0.101 0.016,-0.154c0,-0.053 -0.014,-0.102 -0.016,-0.154c3.188,-0.939 5.967,-2.371 8.823,-3.87c5.381,-2.823 10.945,-5.743 20.362,-5.743l13.573,0c0.401,1.328 1.621,2.304 3.078,2.304c1.034,0 1.945,-0.497 2.536,-1.254c0.859,0.368 1.694,0.805 2.572,1.266c2.193,1.15 4.643,2.41 8.173,2.852c0.329,1.163 1.387,2.022 2.654,2.022c1.526,0 2.768,-1.243 2.768,-2.77c0,-1.527 -1.242,-2.769 -2.768,-2.769c-1.137,0 -2.114,0.689 -2.54,1.671c-3.133,-0.411 -5.315,-1.539 -7.426,-2.646c-0.887,-0.466 -1.804,-0.918 -2.768,-1.324c0.009,-0.093 0.028,-0.183 0.028,-0.278c0,-0.095 -0.019,-0.185 -0.028,-0.278c0.964,-0.406 1.881,-0.859 2.768,-1.324c2.111,-1.108 4.293,-2.235 7.426,-2.646c0.426,0.981 1.403,1.671 2.54,1.671c1.526,0 2.768,-1.243 2.768,-2.77c0,-1.526 -1.242,-2.769 -2.768,-2.769c-1.267,0 -2.325,0.859 -2.654,2.021c-3.53,0.442 -5.98,1.702 -8.173,2.853c-0.878,0.461 -1.713,0.898 -2.572,1.266c-0.591,-0.758 -1.502,-1.254 -2.536,-1.254c-1.457,0 -2.677,0.976 -3.078,2.304l-13.573,0c-9.873,0 -15.903,3.164 -21.222,5.955c-2.76,1.448 -5.441,2.832 -8.495,3.727c-0.664,-1.114 -1.869,-1.87 -3.258,-1.87c-1.777,0 -3.262,1.231 -3.678,2.881l-36.961,0c-19.061,0 -30.292,-5.893 -41.152,-11.592c-6.869,-3.605 -13.484,-7.045 -21.614,-8.721c0.002,-0.05 0.015,-0.097 0.015,-0.147c0,-0.05 -0.013,-0.097 -0.015,-0.146c8.13,-1.677 14.745,-5.117 21.614,-8.721c10.525,-5.524 21.431,-11.205 39.444,-11.551c0.431,1.628 1.903,2.839 3.665,2.839c1.55,0 2.882,-0.935 3.474,-2.267c3.697,0.841 6.785,2.445 9.986,4.125c5.32,2.791 11.349,5.955 21.222,5.955l8.4,0c0.401,1.328 1.62,2.304 3.078,2.304c1.054,0 1.984,-0.516 2.573,-1.3c0.9,0.376 1.77,0.83 2.686,1.311c2.707,1.42 5.776,3.031 10.826,3.031l25.217,0c0.384,1.07 1.398,1.843 2.598,1.843c1.527,0 2.769,-1.243 2.769,-2.769c0,-1.527 -1.242,-2.77 -2.769,-2.77c-1.2,0 -2.214,0.773 -2.598,1.843l-25.217,0c-4.594,0 -7.325,-1.432 -9.965,-2.818c-0.932,-0.489 -1.894,-0.967 -2.913,-1.387c0.005,-0.072 0.022,-0.141 0.022,-0.215c0,-0.073 -0.017,-0.142 -0.022,-0.215c1.019,-0.42 1.981,-0.898 2.913,-1.387c2.111,-1.107 4.293,-2.235 7.425,-2.646c0.427,0.982 1.404,1.671 2.54,1.671c1.527,0 2.769,-1.242 2.769,-2.769c0,-1.527 -1.242,-2.769 -2.769,-2.769c-1.266,0 -2.325,0.858 -2.653,2.021c-3.53,0.442 -5.98,1.702 -8.173,2.852c-0.917,0.481 -1.786,0.935 -2.686,1.312c-0.589,-0.785 -1.519,-1.3 -2.573,-1.3c-1.458,0 -2.677,0.976 -3.078,2.304l-8.4,0c-9.417,0 -14.98,-2.919 -20.361,-5.743c-3.002,-1.575 -5.903,-3.093 -9.298,-4.023c3.395,-0.931 6.296,-2.449 9.298,-4.024c5.381,-2.824 10.944,-5.743 20.361,-5.743l17.629,0c0.401,1.328 1.622,2.304 3.079,2.304c1.057,0 1.987,-0.517 2.577,-1.304c0.903,0.378 1.775,0.833 2.695,1.316c2.194,1.15 4.643,2.41 8.174,2.852c0.329,1.162 1.387,2.021 2.653,2.021c1.527,0 2.769,-1.242 2.769,-2.769c0,-1.527 -1.242,-2.769 -2.769,-2.769c-1.136,0 -2.113,0.689 -2.539,1.671c-3.133,-0.411 -5.316,-1.539 -7.427,-2.646c-0.935,-0.491 -1.901,-0.971 -2.925,-1.392c0.005,-0.071 0.021,-0.138 0.021,-0.21c0,-0.072 -0.016,-0.14 -0.021,-0.21c1.024,-0.421 1.99,-0.901 2.925,-1.392c2.64,-1.386 5.372,-2.818 9.966,-2.818l30.155,0c0.383,1.07 1.398,1.843 2.599,1.843c1.526,0 2.768,-1.243 2.768,-2.77c0,-1.526 -1.242,-2.769 -2.768,-2.769c-1.201,0 -2.216,0.773 -2.599,1.843l-30.155,0c-5.051,0 -8.12,1.61 -10.827,3.031c-0.92,0.483 -1.792,0.938 -2.695,1.315c-0.59,-0.786 -1.52,-1.303 -2.577,-1.303c-1.457,0 -2.678,0.976 -3.079,2.303l-17.629,0c-9.873,0 -15.902,3.164 -21.222,5.955c-3.201,1.68 -6.289,3.284 -9.986,4.125c-0.592,-1.332 -1.924,-2.267 -3.474,-2.267c-1.792,0 -3.29,1.25 -3.691,2.922c-18.449,0.349 -29.557,6.137 -40.278,11.762c-6.753,3.544 -13.253,6.926 -21.199,8.557c-0.731,-1.517 -2.271,-2.575 -4.065,-2.575c-2.164,0 -3.973,1.528 -4.417,3.56c-0.525,0.017 -1.044,0.04 -1.583,0.04l-44.168,0c-0.441,-2.551 -2.665,-4.5 -5.341,-4.5c-2.992,0 -5.426,2.435 -5.426,5.426c0,2.992 2.434,5.426 5.426,5.426c2.676,0 4.9,-1.948 5.341,-4.5l44.168,0c0.539,0 1.058,0.024 1.583,0.041c0.444,2.031 2.253,3.56 4.417,3.56c1.794,0 3.334,-1.058 4.065,-2.576c7.946,1.632 14.446,5.014 21.199,8.557c11.059,5.803 22.495,11.804 42.012,11.804l36.961,0c0.416,1.65 1.901,2.88 3.678,2.88c1.389,0 2.593,-0.756 3.258,-1.869c3.054,0.895 5.735,2.279 8.495,3.727c5.319,2.791 11.349,5.955 21.222,5.955l9.604,0c0.401,1.328 1.621,2.304 3.078,2.304c1.012,0 1.906,-0.478 2.498,-1.208c0.84,0.362 1.666,0.768 2.527,1.22c2.707,1.42 5.774,3.03 10.825,3.03l34.978,0c0.383,1.071 1.397,1.844 2.598,1.844c1.526,0 2.769,-1.243 2.769,-2.77c0,-1.527 -1.243,-2.77 -2.769,-2.77" style="fill:#fff;fill-rule:nonzero;"/><g transform="matrix(1,0,0,1,-57.627,-212.966)"><path d="M58.799,378.44l0,-11.454l2.312,0l0,4.508l4.532,0l0,-4.508l2.312,0l0,11.454l-2.312,0l0,-5.008l-4.532,0l0,5.007l-2.312,0Z" style="fill:#fff;fill-rule:nonzero;"/><path d="M91.427,378.44l-2.515,0l-1,-2.602l-4.579,0l-0.945,2.601l-2.453,0l4.461,-11.453l2.445,0l4.586,11.453ZM87.169,373.908l-1.578,-4.25l-1.547,4.25l3.125,0Z" style="fill:#fff;fill-rule:nonzero;"/><path d="M102.808,378.44l0,-11.454l4.867,0c1.224,0 2.113,0.103 2.668,0.309c0.555,0.206 0.999,0.572 1.332,1.098c0.333,0.526 0.5,1.127 0.5,1.804c0,0.86 -0.253,1.569 -0.758,2.129c-0.505,0.56 -1.26,0.913 -2.265,1.059c0.5,0.291 0.912,0.612 1.238,0.961c0.325,0.349 0.764,0.968 1.316,1.859l1.399,2.234l-2.766,0l-1.672,-2.492c-0.594,-0.89 -1,-1.452 -1.219,-1.683c-0.218,-0.232 -0.45,-0.391 -0.695,-0.477c-0.245,-0.086 -0.633,-0.129 -1.164,-0.129l-0.469,0l0,4.781l-2.312,0ZM105.12,371.83l1.711,0c1.11,0 1.802,-0.047 2.078,-0.14c0.276,-0.094 0.493,-0.256 0.649,-0.485c0.156,-0.229 0.234,-0.515 0.234,-0.859c0,-0.386 -0.103,-0.697 -0.308,-0.934c-0.206,-0.237 -0.497,-0.387 -0.872,-0.449c-0.187,-0.026 -0.75,-0.039 -1.687,-0.039l-1.805,0l0,2.906Z" style="fill:#fff;fill-rule:nonzero;"/><path d="M123.904,366.986l4.227,0c0.953,0 1.68,0.073 2.18,0.219c0.671,0.198 1.247,0.55 1.726,1.055c0.479,0.505 0.844,1.124 1.094,1.855c0.25,0.732 0.375,1.634 0.375,2.707c0,0.943 -0.117,1.756 -0.352,2.438c-0.286,0.833 -0.695,1.508 -1.226,2.023c-0.401,0.391 -0.943,0.696 -1.625,0.914c-0.511,0.162 -1.193,0.243 -2.047,0.243l-4.352,0l0,-11.454ZM126.217,368.924l0,7.586l1.726,0c0.646,0 1.112,-0.037 1.399,-0.11c0.375,-0.093 0.686,-0.252 0.933,-0.476c0.248,-0.224 0.45,-0.593 0.606,-1.106c0.156,-0.513 0.234,-1.212 0.234,-2.097c0,-0.886 -0.078,-1.565 -0.234,-2.039c-0.156,-0.474 -0.375,-0.844 -0.656,-1.11c-0.282,-0.265 -0.638,-0.445 -1.071,-0.539c-0.323,-0.073 -0.955,-0.109 -1.898,-0.109l-1.039,0Z" style="fill:#fff;fill-rule:nonzero;"/><path d="M146.864,378.44l-2.734,-11.454l2.367,0l1.727,7.868l2.093,-7.868l2.75,0l2.008,8l1.758,-8l2.328,0l-2.781,11.454l-2.453,0l-2.282,-8.563l-2.273,8.563l-2.508,0Z" style="fill:#fff;fill-rule:nonzero;"/><path d="M180.132,378.44l-2.515,0l-1,-2.602l-4.579,0l-0.945,2.601l-2.453,0l4.461,-11.453l2.445,0l4.586,11.453ZM175.874,373.908l-1.578,-4.25l-1.547,4.25l3.125,0Z" style="fill:#fff;fill-rule:nonzero;"/><path d="M191.513,378.44l0,-11.454l4.867,0c1.224,0 2.113,0.103 2.668,0.309c0.555,0.206 0.999,0.572 1.332,1.098c0.333,0.526 0.5,1.127 0.5,1.804c0,0.86 -0.253,1.569 -0.758,2.129c-0.505,0.56 -1.26,0.913 -2.265,1.059c0.5,0.291 0.912,0.612 1.238,0.961c0.325,0.349 0.764,0.968 1.316,1.859l1.399,2.234l-2.766,0l-1.672,-2.492c-0.594,-0.89 -1,-1.452 -1.219,-1.683c-0.218,-0.232 -0.45,-0.391 -0.695,-0.477c-0.245,-0.086 -0.633,-0.129 -1.164,-0.129l-0.469,0l0,4.781l-2.312,0ZM193.825,371.83l1.711,0c1.11,0 1.802,-0.047 2.078,-0.14c0.276,-0.094 0.493,-0.256 0.649,-0.485c0.156,-0.229 0.234,-0.515 0.234,-0.859c0,-0.386 -0.103,-0.697 -0.308,-0.934c-0.206,-0.237 -0.497,-0.387 -0.872,-0.449c-0.187,-0.026 -0.75,-0.039 -1.687,-0.039l-1.805,0l0,2.906Z" style="fill:#fff;fill-rule:nonzero;"/><path d="M212.617,378.44l0,-11.454l8.492,0l0,1.938l-6.179,0l0,2.539l5.75,0l0,1.93l-5.75,0l0,3.117l6.398,0l0,1.93l-8.711,0Z" style="fill:#fff;fill-rule:nonzero;"/><path d="M247.459,366.986l4.226,0c0.953,0 1.68,0.073 2.18,0.219c0.672,0.198 1.247,0.55 1.726,1.055c0.48,0.505 0.844,1.124 1.094,1.855c0.25,0.732 0.375,1.634 0.375,2.707c0,0.943 -0.117,1.756 -0.351,2.438c-0.287,0.833 -0.696,1.508 -1.227,2.023c-0.401,0.391 -0.943,0.696 -1.625,0.914c-0.51,0.162 -1.193,0.243 -2.047,0.243l-4.351,0l0,-11.454ZM249.771,368.924l0,7.586l1.727,0c0.645,0 1.112,-0.037 1.398,-0.11c0.375,-0.093 0.686,-0.252 0.934,-0.476c0.247,-0.224 0.449,-0.593 0.605,-1.106c0.156,-0.513 0.235,-1.212 0.235,-2.097c0,-0.886 -0.079,-1.565 -0.235,-2.039c-0.156,-0.474 -0.375,-0.844 -0.656,-1.11c-0.281,-0.265 -0.638,-0.445 -1.07,-0.539c-0.323,-0.073 -0.956,-0.109 -1.899,-0.109l-1.039,0Z" style="fill:#fff;fill-rule:nonzero;"/><path d="M268.793,378.44l0,-11.454l8.493,0l0,1.938l-6.18,0l0,2.539l5.75,0l0,1.93l-5.75,0l0,3.117l6.398,0l0,1.93l-8.711,0Z" style="fill:#fff;fill-rule:nonzero;"/><path d="M288.114,374.713l2.25,-0.219c0.136,0.755 0.411,1.31 0.825,1.664c0.414,0.354 0.972,0.531 1.675,0.531c0.745,0 1.306,-0.157 1.684,-0.472c0.378,-0.315 0.566,-0.684 0.566,-1.106c0,-0.27 -0.079,-0.501 -0.238,-0.691c-0.159,-0.19 -0.436,-0.356 -0.832,-0.496c-0.271,-0.094 -0.888,-0.261 -1.852,-0.5c-1.239,-0.307 -2.109,-0.685 -2.609,-1.133c-0.703,-0.63 -1.055,-1.398 -1.055,-2.305c0,-0.583 0.166,-1.129 0.497,-1.636c0.33,-0.508 0.807,-0.895 1.429,-1.161c0.623,-0.265 1.374,-0.398 2.254,-0.398c1.438,0 2.52,0.315 3.246,0.945c0.727,0.631 1.108,1.472 1.145,2.524l-2.313,0.101c-0.099,-0.588 -0.311,-1.011 -0.636,-1.269c-0.326,-0.258 -0.814,-0.387 -1.465,-0.387c-0.672,0 -1.198,0.138 -1.578,0.414c-0.245,0.177 -0.368,0.414 -0.368,0.711c0,0.271 0.115,0.503 0.344,0.695c0.292,0.245 1,0.5 2.125,0.766c1.125,0.266 1.957,0.54 2.496,0.824c0.539,0.284 0.961,0.672 1.266,1.164c0.305,0.493 0.457,1.101 0.457,1.825c0,0.656 -0.182,1.27 -0.547,1.843c-0.365,0.573 -0.88,0.999 -1.547,1.278c-0.667,0.278 -1.497,0.418 -2.492,0.418c-1.448,0 -2.56,-0.335 -3.336,-1.004c-0.776,-0.67 -1.24,-1.645 -1.391,-2.926Z" style="fill:#fff;fill-rule:nonzero;"/><rect x="309.289" y="366.986" width="2.313" height="11.453" style="fill:#fff;fill-rule:nonzero;"/><path d="M330.303,374.229l0,-1.93l4.984,0l0,4.562c-0.484,0.469 -1.186,0.882 -2.105,1.239c-0.919,0.356 -1.85,0.535 -2.793,0.535c-1.198,0 -2.242,-0.251 -3.133,-0.754c-0.891,-0.503 -1.56,-1.221 -2.008,-2.156c-0.448,-0.935 -0.672,-1.952 -0.672,-3.051c0,-1.193 0.25,-2.253 0.75,-3.18c0.5,-0.927 1.232,-1.638 2.196,-2.133c0.734,-0.38 1.648,-0.57 2.742,-0.57c1.422,0 2.532,0.298 3.332,0.895c0.799,0.596 1.314,1.42 1.543,2.472l-2.297,0.43c-0.161,-0.563 -0.465,-1.007 -0.91,-1.332c-0.445,-0.326 -1.001,-0.488 -1.668,-0.488c-1.011,0 -1.814,0.32 -2.41,0.961c-0.597,0.64 -0.895,1.591 -0.895,2.851c0,1.36 0.302,2.379 0.906,3.059c0.605,0.679 1.396,1.019 2.375,1.019c0.485,0 0.97,-0.095 1.457,-0.285c0.487,-0.19 0.905,-0.42 1.254,-0.691l0,-1.453l-2.648,0Z" style="fill:#fff;fill-rule:nonzero;"/><path d="M346.786,378.44l0,-11.454l2.25,0l4.687,7.649l0,-7.649l2.149,0l0,11.454l-2.32,0l-4.618,-7.469l0,7.469l-2.148,0Z" style="fill:#fff;fill-rule:nonzero;"/></g></svg>